<svg id="Layer_1" data-name="Layer 1" xmlns="http://www.w3.org/2000/svg" viewBox="0 0 908.93 1180.12"><defs><style>.cls-1{fill:#62634c;}</style></defs><path class="cls-1" d="M234.52,82.94c11,8.52,15.62,22,15.62,35.63a74.22,74.22,0,0,1-2.83,20c-2,7.15-4.91,14.15-9.84,19.8a37.11,37.11,0,0,1-19,11.3,56.88,56.88,0,0,1-11.6,1.69c-3.28.13-8.81-.92-7.75-5.46.64-2.74,2.93-5,4.68-7.06,2.45-2.92,4.67-6,6.82-9.18a155,155,0,0,0,11.82-20.54,243.75,243.75,0,0,0,10.13-24.61,50.24,50.24,0,0,0,2.84-11.37,30.36,30.36,0,0,0,0-5.64c-.15-1.74-.54-3.35.91-4.62s-.4-3.72-1.89-2.42c-2.59,2.28-2.24,4.86-2,8a32.93,32.93,0,0,1-1.82,12.2,209.65,209.65,0,0,1-9.55,24.15A155.11,155.11,0,0,1,208,148.17a118.2,118.2,0,0,1-7.24,9.6c-1.93,2.29-4.05,4.77-4.64,7.8a7.22,7.22,0,0,0,4.28,7.85c3.52,1.72,8,1.05,11.72.59,8-1,15.81-3.57,22.23-8.49,12.37-9.46,17.46-26.28,18.63-41.24,1.28-16.37-3.18-33.39-16.62-43.8-1.56-1.21-3.39,1.25-1.83,2.46Z"/><path class="cls-1" d="M211.91,141.22a60,60,0,0,1-26.37,8.45,58.54,58.54,0,0,1-14.24-.61,11.58,11.58,0,0,1-3-.64c-1.44-.73-1.59-2.33-1.78-3.78a39.75,39.75,0,0,1-.3-6.54,42.08,42.08,0,0,1,9.05-24.39c6.69-8.39,16.91-13.83,26.44-18.36,10.77-5.12,22.13-8.83,33.31-12.93,1.85-.68.67-3.51-1.18-2.83-11,4-22.09,7.66-32.67,12.63C190.94,97,180,102.88,172.84,111.89a44.74,44.74,0,0,0-9.65,26.7c-.08,3.9-.48,10.64,3.77,12.56,2.1.95,4.74,1.12,7,1.37a63.07,63.07,0,0,0,39.84-8.88c1.68-1-.22-3.43-1.89-2.42Z"/><path class="cls-1" d="M165.11,130.1c-3.79,0-8.83,0-11.62-3s-1.69-8.68-1.06-12.46c1.44-8.73,4.89-17,9.1-24.78C166,81.56,171.7,73,181.05,69.82c8-2.74,17.12-1.68,25.17.31,9.84,2.43,18.78,7.61,27.67,12.3,1.74.92,2.86-1.93,1.13-2.85-8.84-4.67-17.67-9.7-27.42-12.24-8.72-2.27-18.43-3.33-27.16-.53-10,3.22-16.25,12-21.14,20.81-4.72,8.5-8.52,17.63-10,27.29-.74,4.77-1.56,10.69,2.16,14.48,3.39,3.44,8.76,3.76,13.3,3.75,1.95,0,2.34-3,.37-3Z"/><path class="cls-1" d="M164.75,130.52a7.84,7.84,0,0,1-6.23-8.25,15.59,15.59,0,0,1,5-10c6.17-5.94,15-7.32,23.09-8.57,2-.3,1.54-3.34-.41-3-9.87,1.52-20.72,3.54-27.12,12-2.62,3.47-4.36,8.15-3.47,12.52a10.94,10.94,0,0,0,8.71,8.4c1.94.38,2.3-2.66.38-3Z"/><path class="cls-1" d="M178,139.1c13.24-23.93,36.44-40.28,57.43-56.89a1.53,1.53,0,0,0-1.89-2.41C212,96.8,188.67,113.49,175.13,138c-1,1.72,1.9,2.84,2.84,1.13Z"/><path class="cls-1" d="M219.06,162.62A49.92,49.92,0,0,0,241,136.07c4.11-11.24,4.39-23.55,2-35.21a92.58,92.58,0,0,0-6.35-19.47c-.8-1.8-3.64-.63-2.83,1.18,9.13,20.39,11.57,45.22-1.93,64.36a43.58,43.58,0,0,1-14,12.86c-1.69,1-.53,3.81,1.18,2.83Z"/><path class="cls-1" d="M164.34,146.7c-2.76,7.82.81,15.33,4.54,22.15,1.92,3.53,3.92,7.12,4.83,11.08,1,4.49.59,9.22-.29,13.7-3,15.34-12.65,28.64-24.71,38.3a106.27,106.27,0,0,1-21,12.94,40.55,40.55,0,0,1-5.87,2.43,14,14,0,0,1-3.08.58c-.51,0-1.36.22-1.48-.21s.28-1,.37-1.39a30.73,30.73,0,0,1,5.8-10.59c5-6.28,11.55-11.1,17.06-16.93A47.88,47.88,0,0,0,151.89,199a46.39,46.39,0,0,0,1.75-13c0-4.72-.78-9.44-.53-14.17.5-9.59,6.81-16.66,13.23-23.18,1.39-1.41-.93-3.41-2.31-2-5.52,5.6-11.13,11.71-13.16,19.52-2.3,8.83.61,18.05-.82,27a44,44,0,0,1-10.92,22.62c-5.82,6.44-13,11.54-18.36,18.41a34.63,34.63,0,0,0-5.61,10c-.52,1.51-1.33,3.44-.7,5,.74,1.84,2.82,1.91,4.54,1.79,4.3-.28,8.34-2.44,12.13-4.33a119,119,0,0,0,11.27-6.38c13.72-8.85,25.58-21.27,31.36-36.74,3.24-8.68,5.19-18.79,1.88-27.72-3.22-8.66-12-17.83-8.55-27.72.65-1.84-2.09-3.21-2.75-1.35Z"/><path class="cls-1" d="M149.87,176.69c-2.07,5.44-7.86,9.18-12.57,12.18a67.48,67.48,0,0,1-16.63,7.67C110,199.82,96,200.66,88.2,191c-3.16-3.9-5-9.12-3.52-14.09,1.64-5.71,6.81-9.83,11.16-13.52,9.34-7.94,19.81-15.09,31.87-18a43.56,43.56,0,0,1,20.43-.3c5.87,1.42,12.14,6.32,18.2,3.19,1.75-.9,0-3.43-1.73-2.53-3.17,1.64-7-.51-10-1.72a39.54,39.54,0,0,0-9.06-2.56,48.43,48.43,0,0,0-19.21,1.11c-13,3.28-24.3,11.34-34.27,20.06-4.41,3.86-9,8.11-10.5,14-1.36,5.19.21,10.77,3.24,15.07,7.37,10.45,20.94,11.56,32.48,8.94a68.55,68.55,0,0,0,20.31-8.33c5.58-3.37,12.57-7.85,15-14.22.7-1.83-2-3.2-2.75-1.36Z"/><path class="cls-1" d="M82.23,174.77a8.7,8.7,0,0,1-3.25,1.1c-.48.06-2.34.28-2.56-.22s.93-2.15,1.11-2.5c.45-.88.91-1.74,1.39-2.59a80.57,80.57,0,0,1,6.54-9.72,161.49,161.49,0,0,1,15.44-16.91c5.37-5.2,11.45-10.18,18.78-12.24,3.83-1.08,8-1.34,11.53.65,3.33,1.84,6.35,4.36,9.52,6.46,7.18,4.75,14.82,8.84,23.23,10.88,1.92.46,2.52-2.54.61-3-8.89-2.14-16.87-6.77-24.36-11.88-3.46-2.37-6.88-5.48-11-6.56s-8.46-.23-12.31,1.13c-7.88,2.8-14.29,8.54-20.11,14.36A139.45,139.45,0,0,0,79.67,163.6c-1.42,2.09-2.76,4.24-4,6.46-.91,1.66-2.64,4.05-2.55,6,.22,4.87,8.44,2.54,10.81,1.2,1.71-1,0-3.5-1.73-2.53Z"/><path class="cls-1" d="M149.09,178.46a41.26,41.26,0,0,1-34.26,44.44A29.38,29.38,0,0,1,100.2,222c-2-.71-5.11-2-6.27-3.88-1.39-2.27,2-3.84,3.73-4.51,10.78-4.28,22-7.36,32.2-12.94,9.54-5.19,18.2-12.57,23-22.5a1.53,1.53,0,0,0-2.75-1.35c-4.85,10.06-13.89,17.22-23.67,22.22a154,154,0,0,1-18.58,7.65c-3.06,1.1-6.12,2.17-9.17,3.28-2.3.84-4.72,1.67-6.48,3.46A4.88,4.88,0,0,0,90.92,219c1,2.13,3.5,3.64,5.5,4.67a28.58,28.58,0,0,0,15.33,2.65,44.3,44.3,0,0,0,40.39-48.12,1.53,1.53,0,0,0-3,.22Z"/><path class="cls-1" d="M97.21,181.83a60.6,60.6,0,0,1,28.37-24.07,59.09,59.09,0,0,1,17.88-4.38c7-.56,14.3.52,20.76-2.72l-1.66-2.45c-8.33,10.07-6.81,23.76-5.56,35.84.75,7.18,1.37,14.59-.72,21.62-2,6.75-6.41,12.46-11.21,17.47-1.37,1.43,1,3.43,2.31,2,4.64-4.85,8.86-10.32,11.18-16.68,2.39-6.57,2.46-13.56,1.9-20.45-1-12.4-4.3-27.26,4.41-37.81.89-1.07-.21-3.18-1.67-2.45-5.38,2.71-11.41,2.21-17.25,2.41a61.45,61.45,0,0,0-15,2.44,64.88,64.88,0,0,0-25.64,14.57,61.51,61.51,0,0,0-10.86,13.3c-1,1.68,1.73,3,2.75,1.35Z"/><path class="cls-1" d="M107.84,145.73a39.8,39.8,0,0,1,42.46-.43c1.67,1,3-1.72,1.36-2.75a42.83,42.83,0,0,0-45.55.65c-1.65,1.09.08,3.62,1.73,2.53Z"/><path class="cls-1" d="M250.31,1090.08c-5.46,12.8-17.38,20.69-30.52,24.13a74.4,74.4,0,0,1-20.1,2.34c-7.43-.14-14.93-1.17-21.65-4.5a37.21,37.21,0,0,1-15.73-15.5,57,57,0,0,1-4.57-10.8c-1-3.13-1.35-8.74,3.32-8.87,2.81-.08,5.55,1.57,8,2.73,3.44,1.63,7,3,10.62,4.28a154.38,154.38,0,0,0,22.85,6.23,241.55,241.55,0,0,0,26.38,3.57,50.48,50.48,0,0,0,11.72-.13,30.39,30.39,0,0,0,5.46-1.4c1.64-.58,3.1-1.37,4.7-.29s3.5-1.33,1.86-2.43c-2.86-1.94-5.27-1-8.26.08a32.93,32.93,0,0,1-12.25,1.32,210.84,210.84,0,0,1-25.79-3.12,154.85,154.85,0,0,1-25.87-6.79c-3.77-1.37-7.51-2.84-11.12-4.57-2.7-1.3-5.64-2.72-8.72-2.52a7.22,7.22,0,0,0-6.52,6.13c-.77,3.84,1,8,2.4,11.48,3,7.45,7.46,14.4,13.84,19.37,12.28,9.56,29.85,10.23,44.62,7.57,16.16-2.9,31.49-11.53,38.16-27.16.77-1.82-2.07-3-2.84-1.15Z"/><path class="cls-1" d="M188.2,1083a60.12,60.12,0,0,1-14.85-23.38,58.23,58.23,0,0,1-3-13.93,10.64,10.64,0,0,1-.13-3c.33-1.59,1.84-2.13,3.2-2.68a38,38,0,0,1,6.25-2,42,42,0,0,1,25.88,2.58c9.82,4.35,17.66,12.85,24.46,20.93,7.68,9.12,14.15,19.17,20.94,28.94,1.13,1.63,3.57-.24,2.44-1.85-6.66-9.59-13-19.43-20.49-28.41-7.26-8.7-15.67-17.79-26.2-22.45a44.82,44.82,0,0,0-28.28-2.58c-3.79.91-10.41,2.24-11.2,6.83-.39,2.27.13,4.87.45,7.12a61.82,61.82,0,0,0,1.54,7.37,63.33,63.33,0,0,0,17.14,28.92c1.42,1.37,3.26-1.08,1.86-2.43Z"/><path class="cls-1" d="M187.11,1034.87c-1-3.67-2.27-8.53-.05-12s8-3.83,11.78-4.18c8.81-.82,17.72.42,26.28,2.53,9.18,2.26,18.86,5.57,24.34,13.81,4.68,7,6,16.13,6.08,24.43.14,10.14-2.61,20.09-4.9,29.88-.45,1.92,2.6,2.28,3.05.37,2.27-9.73,4.9-19.55,4.89-29.62,0-9-1.44-18.68-6.36-26.41-5.66-8.9-15.71-12.69-25.48-15.19-9.42-2.41-19.22-3.78-28.94-2.78-4.81.5-10.74,1.2-13.46,5.76-2.48,4.15-1.42,9.42-.26,13.81.49,1.88,3.54,1.5,3-.41Z"/><path class="cls-1" d="M186.62,1034.62a7.81,7.81,0,0,1,6.4-8.11,15.64,15.64,0,0,1,11,2.35c7.31,4.46,10.87,12.62,14.14,20.17.78,1.81,3.61.64,2.83-1.17-4-9.17-8.67-19.15-18.5-23.2-4-1.65-9-2.15-13-.19a10.93,10.93,0,0,0-5.92,10.56c.12,2,3.15,1.55,3-.41Z"/><path class="cls-1" d="M181.66,1049.59c26.51,6.75,48.19,25.06,69.57,41.16a1.53,1.53,0,0,0,1.86-2.44c-21.89-16.48-43.94-34.86-71.06-41.76-1.9-.48-2.26,2.56-.37,3Z"/><path class="cls-1" d="M169.31,1095.3a50,50,0,0,0,31.23,14.45c11.91,1.14,23.9-1.71,34.58-7a92.69,92.69,0,0,0,17.22-11.07c1.54-1.24-.31-3.68-1.85-2.44-17.42,14-40.83,22.64-62.75,14.42a43.33,43.33,0,0,1-16-10.27c-1.36-1.39-3.82.45-2.44,1.86Z"/><path class="cls-1" d="M170.86,1038.33c-8.26-.69-14.63,4.67-20.28,10-2.93,2.77-5.9,5.6-9.5,7.48-4.08,2.14-8.77,2.91-13.33,3.19-15.61,1-30.91-5-43.3-14.2a106.46,106.46,0,0,1-17.84-17,41.86,41.86,0,0,1-3.83-5.07,14.05,14.05,0,0,1-1.35-2.82c-.16-.5-.55-1.27-.17-1.49a4.36,4.36,0,0,1,1.44,0,30.54,30.54,0,0,1,11.71,2.92c7.35,3.28,13.67,8.37,20.7,12.22a47.89,47.89,0,0,0,22,6,46,46,0,0,0,13-1.61c4.56-1.23,8.94-3.14,13.58-4.1,9.41-1.94,17.85,2.38,25.78,6.94,1.71,1,3.06-1.77,1.35-2.75-6.81-3.92-14.14-7.8-22.21-7.79-9.12,0-17.31,5.16-26.33,6a44,44,0,0,1-24.65-4.84c-7.7-4-14.46-9.66-22.46-13.11a34.8,34.8,0,0,0-11-2.9c-1.6-.12-3.67-.42-5,.59-1.6,1.19-1.13,3.22-.59,4.85,1.37,4.09,4.48,7.45,7.26,10.63a116.59,116.59,0,0,0,9,9.3c12,11,27.05,19.36,43.49,21,9.21.94,19.48.27,27.28-5.2,7.57-5.31,14.21-16.16,24.65-15.29,1.95.16,2.58-2.84.62-3Z"/><path class="cls-1" d="M138.18,1031.93c-5.79-.63-10.87-5.28-15-9.08a67.6,67.6,0,0,1-11.63-14.15c-5.88-9.53-10.23-22.83-2.88-32.81,3-4,7.57-7.1,12.74-7,5.94.14,11.24,4.1,15.91,7.37,10,7,19.61,15.34,25.53,26.26a43.64,43.64,0,0,1,5.46,19.69c.11,6-3,13.34,1.52,18.42,1.32,1.46,3.32-.86,2-2.32-2.38-2.65-1.28-6.92-.85-10.08a40,40,0,0,0,.18-9.41,48.64,48.64,0,0,0-5.94-18.31c-6.48-11.78-17.13-20.63-28.09-28.07-4.85-3.29-10.11-6.62-16.18-6.62-5.37,0-10.36,2.93-13.76,7-8.24,9.77-5.88,23.18-.42,33.68A68.79,68.79,0,0,0,120,1024c4.67,4.54,10.78,10.16,17.55,10.9,1.95.21,2.58-2.79.62-3Z"/><path class="cls-1" d="M122.91,966a8.86,8.86,0,0,1-1.89-2.86c-.17-.45-.86-2.2-.43-2.53s2.31.35,2.7.44c1,.2,1.91.44,2.86.69a79.88,79.88,0,0,1,11,3.86,161.66,161.66,0,0,1,20.27,10.65c6.39,3.89,12.75,8.51,16.6,15.07,2,3.43,3.3,7.36,2.29,11.33-.94,3.68-2.61,7.24-3.84,10.84-2.77,8.15-4.8,16.57-4.64,25.23,0,2,3.1,1.79,3.06-.18-.17-9.14,2.28-18,5.33-26.57,1.42-4,3.56-8,3.55-12.33s-1.92-8.24-4.21-11.62c-4.7-6.92-11.88-11.67-19-15.82a138.38,138.38,0,0,0-23.56-11.5c-2.39-.84-4.8-1.6-7.25-2.21-1.85-.46-4.59-1.52-6.49-.94-4.66,1.45-.32,8.81,1.57,10.76,1.37,1.42,3.38-.9,2-2.31Z"/><path class="cls-1" d="M136.27,1031.62a41.26,41.26,0,0,1-51.66-21.89,29.29,29.29,0,0,1-2.87-14.37c.19-2.11.63-5.46,2.17-7.06,1.84-1.91,4.23,1,5.3,2.48,6.87,9.33,12.69,19.37,20.67,27.86,7.44,7.92,16.77,14.43,27.59,16.54a1.54,1.54,0,0,0,.61-3c-11-2.13-20.18-9.07-27.49-17.26a155,155,0,0,1-12.11-16c-1.83-2.68-3.64-5.37-5.49-8-1.4-2-2.81-4.15-5-5.4a4.93,4.93,0,0,0-5.73.18c-1.82,1.48-2.63,4.32-3.12,6.51a28.57,28.57,0,0,0,1.32,15.5,44.31,44.31,0,0,0,56.77,26.9c1.86-.66.88-3.56-1-2.9Z"/><path class="cls-1" d="M119.87,982.28a60.57,60.57,0,0,1,30.47,21.35,59,59,0,0,1,8.77,16.19c2.3,6.59,3.11,14,7.89,19.4L169,1037c-11.86-5.5-24.71-.56-36.08,3.71-6.76,2.54-13.77,5-21.1,4.78-7-.23-13.68-3-19.74-6.43-1.73-1-3.08,1.79-1.36,2.74,5.86,3.27,12.23,6,19,6.6,7,.65,13.74-1.05,20.26-3.34,11.74-4.13,25.28-11.07,37.69-5.31,1.27.59,3-1,1.95-2.23-4-4.52-5-10.49-6.7-16.08a61.58,61.58,0,0,0-6.15-13.89,65,65,0,0,0-20.59-21.11,62,62,0,0,0-15.61-7.14c-1.89-.57-2.49,2.44-.62,3Z"/><path class="cls-1" d="M157.49,983.42a39.81,39.81,0,0,1,11.17,41c-.59,1.88,2.42,2.48,3,.62a42.84,42.84,0,0,0-12.16-43.9c-1.47-1.32-3.49,1-2,2.31Z"/><path class="cls-1" d="M297.81,22.76a88,88,0,0,0-37.73.81c-12,2.84-22.64,8.76-30.49,18.35a47.41,47.41,0,0,0-8.73,16,42.08,42.08,0,0,0-1.73,8.9c-.11,1.41-.29,3.3.54,4.54,1.06,1.57,3.6,1.73,5.3,2,7.59,1.12,15.34-.49,22.55-2.83a132.6,132.6,0,0,0,21.1-9c13.64-7.23,27.13-16.58,43.1-17.13,2-.06,2.13,3,.15,3.07-15.61.53-28.79,9.92-42.15,16.93a134.24,134.24,0,0,1-22.26,9.39c-7.56,2.35-15.6,3.77-23.5,2.53-3.09-.49-6.37-1.31-7.49-4.6-1-2.87-.36-6.34.15-9.25a48,48,0,0,1,7.13-17.73,55.81,55.81,0,0,1,30-22.61,90,90,0,0,1,44.73-2.37c1.93.4,1.27,3.39-.67,3Z"/><path class="cls-1" d="M245.63,75.18c-3.73,2.48-4.3,7.55-2.74,11.48,1.91,4.82,7.08,7.65,11.77,9.14,5.83,1.84,11.79,2.29,17.57.08s11.33-5.62,16.79-8.62q9.47-5.19,18.76-10.72c1.69-1,3.37,1.56,1.67,2.57q-9.6,5.7-19.41,11.08Q285,93,279.88,95.63a47.55,47.55,0,0,1-9.33,4c-6.24,1.71-12.95.6-18.9-1.7-5.12-2-10.16-5.61-11.93-11-1.67-5.12-.42-11.23,4.23-14.32a1.54,1.54,0,0,1,1.68,2.57Z"/><path class="cls-1" d="M304.05,93.7a86.63,86.63,0,0,1-13.73,10.37c-4.83,2.92-10.21,5.88-15.75,7.15-11.82,2.71-20.63-5.82-27.16-14.52-1.18-1.58,1.39-3.24,2.57-1.67,6.19,8.24,14.46,16.25,25.6,12.74,9.67-3.06,18.8-9.31,26.2-16.13,1.44-1.33,3.73.72,2.27,2.06Z"/><path class="cls-1" d="M218,65.37c-3,1.54-6.29,3.12-9.72,2.13a6.31,6.31,0,0,1-4.66-6.7c.21-3.28,1.55-6.66,2.83-9.66a49.85,49.85,0,0,1,5-9.06,57.7,57.7,0,0,1,35-23,71.58,71.58,0,0,1,26.18-.76c1.95.3,1.28,3.29-.66,3-13.26-2-27.3-.32-39.25,6a52,52,0,0,0-23.45,25,42.51,42.51,0,0,0-1.65,4.5c-.53,1.71-1.42,4-.82,5.76,1.38,4.1,7.09,1.51,9.51.26,1.74-.9,3.43,1.66,1.68,2.57Z"/><path class="cls-1" d="M242.17,55.58a86.77,86.77,0,0,1,22.09-17.24c8.87-4.74,18.29-5,28.12-4.78,2,0,2.13,3.11.16,3.06-9.51-.25-18.68-.08-27.22,4.62a85.33,85.33,0,0,0-20.88,16.4c-1.35,1.43-3.62-.62-2.27-2.06Z"/><path class="cls-1" d="M368.53,89.15c-8,6.52-16.79,11.81-27,13.8-8.46,1.65-17.29,1-25.1-2.8a29.57,29.57,0,0,1-9.78-7.54,18.39,18.39,0,0,1-3.42-5.5c-.9-2.71,1-4.87,3.21-6.2,4-2.47,9.3-2.55,13.87-3a112.25,112.25,0,0,1,16.19-.64c9.83.46,19.46,3.51,29.29,2.17-.34-1-.65-1.94-.94-2.93-6,.77-12.14-.26-18.12-1.16a95.16,95.16,0,0,0-19.95-1c-5.52.33-11.31.62-16.7,1.91-4.1,1-9,3.44-10,7.93s2.88,9.08,5.71,12a33.26,33.26,0,0,0,11,7.48c8.59,3.66,17.9,3.94,26.94,1.94,10-2.21,18.71-7.49,26.53-13.9C371.72,90.48,370.06,87.9,368.53,89.15Z"/><path class="cls-1" d="M362.77,49.38c-5.69-1.33-11.41-2.54-17.15-3.59-8.67-1.59-17.55-2.95-26.39-2.23-7.91.64-16.35,3-22.23,8.65-5.25,5-7.36,14-1.57,19.47,4.82,4.58,12.78,7,19.32,6.83,2-.07,1.81-3.13-.15-3.06a27,27,0,0,1-10.94-2.26c-3.16-1.31-6.86-3.33-8.11-6.7-2.82-7.59,4.38-13.85,10.55-16.63,7-3.14,14.76-3.73,22.32-3.31,8,.46,16,2,23.83,3.65,3.41.69,6.81,1.45,10.2,2.25C362.54,51.43,362.65,50.4,362.77,49.38Z"/><path class="cls-1" d="M369.08,26.92c-1.4-1.09-2.83-2.13-4.32-3.09-9.25-5.92-20.11-9.16-31-10.44-11-1.29-22.62-.58-32.72,4.37-4.38,2.14-8.4,5.41-9.74,10.29-1.25,4.56.71,8.9,4.45,11.59,6.71,4.81,16,5.56,23.92,6.88,1.94.33,2.61-2.67.66-3-4.13-.69-8.26-1.38-12.35-2.29s-8.53-2.1-11.61-5c-3.74-3.57-2.59-8.87.85-12.22s8.44-5.16,13-6.37c9.79-2.6,20.29-2.08,30.13-.06a66,66,0,0,1,26.84,11.88A16.62,16.62,0,0,1,369.08,26.92Z"/><path class="cls-1" d="M366.94,82.46a45.06,45.06,0,0,1-40.11,6.39c-1.88-.61-2.52,2.39-.66,3a47.91,47.91,0,0,0,42.12-6.59C367.81,84.35,367.36,83.43,366.94,82.46Z"/><path class="cls-1" d="M362.48,64.77A112.84,112.84,0,0,0,344.84,61a146.67,146.67,0,0,0-28.11-.46,1.53,1.53,0,0,0,.16,3.06c9.12-.57,18.2-.79,27.28.39a113.3,113.3,0,0,1,18.76,4.1Q362.66,66.38,362.48,64.77Z"/><path class="cls-1" d="M363.74,41.8c-1.17-.63-2.35-1.25-3.54-1.83a89.27,89.27,0,0,0-23.94-8.2c-1.94-.34-2.61,2.66-.67,3a85.52,85.52,0,0,1,22.63,7.66q2.58,1.23,5.09,2.62C363.46,44,363.6,42.88,363.74,41.8Z"/><path class="cls-1" d="M297.83,73c-7.67,7.84-18.35,11.1-28.6,14-1.9.55-2.86-2.36-1-2.91,9.71-2.77,20-5.75,27.29-13.17,1.38-1.41,3.66.64,2.28,2Z"/><path class="cls-1" d="M361.62,71.11c8.65,5.09,18.56,7,28.34,8.53s19.77,3.13,29.11-1a44.36,44.36,0,0,0,11.17-7.42,69.77,69.77,0,0,0,9.81-10.08,11.64,11.64,0,0,0,1.49-12.22c-1.69-3.89-4.68-7.38-7.62-10.4a36.69,36.69,0,0,0-23.59-11.32c-2-.16-2,2.91,0,3.07a32.71,32.71,0,0,1,19.45,8.51,44.14,44.14,0,0,1,7.61,8.86c2.56,4,3.05,8.09,0,12a72.14,72.14,0,0,1-8.59,8.8,44,44,0,0,1-10.13,7c-8.61,4.17-18.14,2.75-27.21,1.3-9.73-1.56-19.66-3.26-28.27-8.33a1.54,1.54,0,0,0-1.55,2.65Z"/><path class="cls-1" d="M420.32,58a144.47,144.47,0,0,1-32.74,7.72c-5.69.65-11.65,1.25-17.29,0a28,28,0,0,1-3.91-1.18c-1.15-.46-3.35-1.26-3.7-2.61-.44-1.72,1.95-4.13,3-5.17a57.09,57.09,0,0,1,6.23-4.95q6.45-4.73,13.25-8.9a211.3,211.3,0,0,1,28.49-14.5c4.05-1.72,8-3.64,12.06-5.38,2.84-1.22,6-2.51,8.11-4.87,5.85-6.52-6.24-13.68-11.24-15.79C407.21-4.18,390.3,4,378.51,14c-7.46,6.32-14.16,14.24-18.07,23.27a38.79,38.79,0,0,0,.26,32.25c.86,1.78,3.5.22,2.65-1.55-4.51-9.3-4.18-20.38,0-29.74C366.88,30.3,372.6,23.37,379,17.6c11.22-10.08,28.46-19.22,43.48-12a28.79,28.79,0,0,1,5.3,3.3c1.46,1.16,4.58,3.36,4.58,5.44,0,2.59-4.42,4.29-6.32,5.16-8.22,3.76-16.64,7.12-24.78,11.05A198.14,198.14,0,0,0,374.34,46.3c-3.81,2.65-8,5.31-11.22,8.67-2.13,2.2-4.79,5.92-2.81,9,1.74,2.69,5.67,3.83,8.6,4.56,5.53,1.38,11.27,1,16.89.49a147.2,147.2,0,0,0,35.33-8c1.85-.66,1.05-3.62-.81-3Z"/><path class="cls-1" d="M360.68,69.26c2.05,17.84,14.58,35.45,33.16,38.35A62,62,0,0,0,427.16,104c7.89-3.32,15.72-8.51,20.55-15.72,2.63-3.92,4.29-8.84,3.54-13.6-.45-2.87-1.95-5.41-3.44-7.84-2-3.23-4-6.45-5.94-9.67a1.54,1.54,0,0,0-2.8,1.18c.77,3.86,1.42,7.94.38,11.81a14.07,14.07,0,0,1-5.66,7.81c-6.23,4.32-14.27,3.56-20.82.37-1.76-.86-3.32,1.78-1.54,2.65,7.68,3.74,17.14,4.56,24.36-.7a17.28,17.28,0,0,0,6.43-8.66c1.45-4.58.72-9.48-.2-14.09l-2.8,1.18,4.36,7.09A43.19,43.19,0,0,1,447.67,73c1.47,3.94.44,8.37-1.54,11.93-3.89,7-11.13,12-18.22,15.33-9.26,4.39-19.87,5.75-30,4.78a35,35,0,0,1-22.36-10.54,43.93,43.93,0,0,1-11.79-25.26c-.22-1.94-3.29-2-3.06,0Z"/><path class="cls-1" d="M414.88,93.23c-5.71.9-11.15,1.44-16.8-.13A66.46,66.46,0,0,1,385.16,88c-7.75-4-14.61-9.71-18.7-17.53-.91-1.75-3.56-.2-2.64,1.54,4.4,8.43,11.93,14.65,20.31,18.9A68.7,68.7,0,0,0,398,96.25c5.94,1.53,11.75.88,17.72-.06,1.94-.31,1.12-3.27-.81-3Z"/><path class="cls-1" d="M363.15,59.36a49.71,49.71,0,0,1,15.37-30.2c8.66-8.22,19.88-13.26,31.57-15.32,1.94-.34,1.12-3.29-.81-2.95-12.4,2.18-24.3,7.71-33.37,16.53a53,53,0,0,0-15.83,31.94c-.21,2,2.85,1.94,3.07,0Z"/><path class="cls-1" d="M443.18,64.92c1.25-9.85,7.55-18.2,15.9-23.33,5-3.06,10.69-4.91,16.25-6.54a75.4,75.4,0,0,1,16.09-3,40.79,40.79,0,0,1,17.85,2.57c1.82.73,1,3.67-.87,2.94-12.18-4.86-25.55-1.94-37.51,2.14-6.21,2.12-12,4.93-16.67,9.65a27.58,27.58,0,0,0-8,15.69c-.24,1.94-3.31,1.88-3.06-.09Z"/><path class="cls-1" d="M442.76,64.68c-.52-5.63-.94-11.37.31-16.93,1.37-6.09,5.13-10.6,10-14.35,10.2-7.86,22.82-11.67,35.48-13.11,6.41-.73,13.36-1.4,19.78-.48,5.65.82,10.55,4.14,14.22,8.41a16.17,16.17,0,0,1,4.2,8.32c.39,3.06-.32,6.32-1,9.31A21.46,21.46,0,0,1,522.49,54a23.7,23.7,0,0,1-6.93,6c-13.9,8.56-30.27,12-46.47,11.28-2-.09-1.89-3.16.08-3.07A79.35,79.35,0,0,0,507.31,61c5.23-2.49,11.41-5.47,14-11a31,31,0,0,0,2.12-8.06c.54-3.32.52-6.25-1.31-9.18-2.82-4.53-7.66-8.47-12.92-9.65a38.89,38.89,0,0,0-9-.47c-2.89.06-5.77.2-8.64.45-11.49,1-23.09,3.91-32.9,10.17-5.46,3.48-10.57,7.86-12.34,14.31-1.53,5.58-1,11.55-.46,17.24.18,2-2.88,1.86-3.06-.08Z"/><path class="cls-1" d="M444.06,64.17c3.11-1.85,6.37-3.55,10.09-3.22a26.28,26.28,0,0,1,9.35,3.19A33.8,33.8,0,0,1,472,70.32a74.81,74.81,0,0,0,7.76,7.24c10.52,7.89,23.48,11.31,35.39,16.45,4.75,2.06,13.34,4.86,12.65,11.46-.32,3-2.95,4.52-5.6,5.3a47.7,47.7,0,0,1-10.07,1.73c-14,1-27.94-3.6-39.88-10.57a91,91,0,0,1-18.41-14.21c-2.75-2.75-5.74-5.7-7.47-9.22-1.9-3.88-2.12-8.24-2.28-12.49-.07-2,3-1.88,3.07.09.13,3.56.25,7.28,1.74,10.58,1.34,3,3.76,5.42,6,7.75a87.54,87.54,0,0,0,14.55,12.14c10.44,6.94,22.55,12,35.14,12.85a51.12,51.12,0,0,0,9.74-.19c2.83-.34,6.34-.7,8.86-2.1,3.75-2.07.06-5.69-2.26-7a79.14,79.14,0,0,0-8-3.77c-10.44-4.39-21.51-7.64-31.15-13.72a52.4,52.4,0,0,1-7.26-5.49c-2.78-2.52-5.12-5.51-8.17-7.72A33.74,33.74,0,0,0,457,64.68c-4.36-1.41-7.67-.09-11.45,2.16-1.7,1-3.19-1.67-1.5-2.67Z"/><path class="cls-1" d="M448,64.48c2.64,5.72,7.11,10.36,11.69,14.6a91.25,91.25,0,0,0,13.11,10,92.17,92.17,0,0,0,30.9,12.36c1.93.39,1,3.33-.87,2.94a94.5,94.5,0,0,1-32.13-13A94.7,94.7,0,0,1,457.07,80.8C452.48,76.5,448,71.74,445.35,66c-.83-1.78,1.85-3.29,2.67-1.49Z"/><path class="cls-1" d="M474.22,68.69c15.55,0,31.64-1.77,45.67-8.94,2.52-1.29,5.92-4.53,8.53-1.81,2.16,2.26,2.93,5.56,3.26,8.57.73,6.64-.68,13.2-5.19,18.28-5.38,6.06-13.47,8.46-21.33,9-2,.13-1.87-2.94.09-3.06,6.47-.42,13.08-2.26,17.88-6.83,4.57-4.35,6.15-10.33,5.58-16.5a19.53,19.53,0,0,0-.8-4.22,9.59,9.59,0,0,0-1-2.15c-.8-1.25-1.32-.9-2.42-.26a66.88,66.88,0,0,1-8.85,4.3,87.82,87.82,0,0,1-19.1,5.13,147.12,147.12,0,0,1-22.4,1.59c-2,0-1.88-3.06.09-3.06Z"/><path class="cls-1" d="M473,69.35c15.57,10.6,35.48,9.22,52.12,2,1.8-.78,3.31,1.89,1.5,2.68-17.62,7.67-38.7,9.21-55.21-2-1.62-1.11,0-3.74,1.59-2.62Z"/><path class="cls-1" d="M444.69,42.62c-.78-6.16-.87-12.68,1.41-18.56,2.49-6.44,7.63-10.71,13.66-13.79,12.86-6.58,28.62-7.69,42.59-4.49,6.7,1.53,13.31,4.55,17.53,10.16a1.57,1.57,0,0,1-.35,2.41A34,34,0,0,1,508.74,23a1.54,1.54,0,0,1-.73-3,31.09,31.09,0,0,0,10-4.31l-.35,2.41C510.42,8.44,496.2,6.92,485,7.23a57,57,0,0,0-20,4c-5.83,2.37-11.82,5.8-14.93,11.49s-3.21,12.81-2.41,19.16c.24,1.94-2.73,2.69-3,.74Z"/><path class="cls-1" d="M492.73,15c-10.42-.13-21.45.61-30.73,5.84-7.27,4.08-13.38,11.06-14.55,19.54-.26,1.93-3.33,1.87-3.06-.09,1.27-9.21,7.31-16.82,15.14-21.56,9.92-6,22-6.94,33.29-6.79,2,0,1.89,3.09-.09,3.06Z"/><path class="cls-1" d="M694.49,142.94c-6.76,12.16-19.44,18.76-32.87,20.81a74.09,74.09,0,0,1-20.23.22c-7.37-.92-14.73-2.72-21.06-6.74a37.14,37.14,0,0,1-14-17.06A56.23,56.23,0,0,1,602.89,129c-.63-3.22-.43-8.84,4.22-8.48,2.81.22,5.36,2.14,7.69,3.56,3.25,2,6.68,3.71,10.11,5.36A154.06,154.06,0,0,0,647,138a243.65,243.65,0,0,0,25.86,6.31,50.76,50.76,0,0,0,11.66,1.09,30.92,30.92,0,0,0,5.58-.82c1.69-.41,3.23-1,4.71.2s3.61-1,2.1-2.23c-2.64-2.22-5.14-1.49-8.22-.78a33,33,0,0,1-12.33,0A209.49,209.49,0,0,1,651,136a153.93,153.93,0,0,1-25-9.45,119.81,119.81,0,0,1-10.59-5.71c-2.55-1.57-5.32-3.29-8.41-3.41a7.22,7.22,0,0,0-7.12,5.41c-1.16,3.74.17,8,1.19,11.67,2.18,7.72,5.91,15.1,11.74,20.71C624,166,641.44,168.5,656.41,167.4c16.37-1.2,32.53-8.17,40.79-23,1-1.72-1.75-3.16-2.71-1.43Z"/><path class="cls-1" d="M633.47,129.37a60.1,60.1,0,0,1-12.32-24.8,58.24,58.24,0,0,1-1.54-14.17,11.4,11.4,0,0,1,.18-3c.5-1.54,2.06-1.92,3.47-2.33a38,38,0,0,1,6.42-1.28A42.06,42.06,0,0,1,655.15,89c9.31,5.35,16.22,14.63,22.14,23.37,6.68,9.88,12.06,20.54,17.8,31,.95,1.73,3.57.13,2.62-1.59-5.63-10.23-10.9-20.68-17.41-30.4C674,102,666.57,92.06,656.59,86.32a44.9,44.9,0,0,0-27.86-5.52c-3.86.51-10.59,1.14-11.85,5.63-.62,2.21-.39,4.85-.3,7.12a64.86,64.86,0,0,0,.76,7.49,63.39,63.39,0,0,0,14,30.56c1.26,1.51,3.35-.73,2.1-2.23Z"/><path class="cls-1" d="M699.4,88.1a36.24,36.24,0,0,1,3.7,14.62,5.58,5.58,0,0,1,2.32-.48c.25,0,.47.05.7.07a40.4,40.4,0,0,0-3.82-15.26c-4.7-9.44-14.3-14.27-23.76-17.77-9.12-3.38-18.72-5.77-28.5-5.79-4.82,0-10.8.07-14,4.32-2.9,3.87-2.4,9.22-1.71,13.7.3,1.93,3.37,1.86,3.07-.09-.58-3.74-1.37-8.72,1.19-11.94s8.34-3,12.16-2.92c8.85.11,17.58,2.27,25.87,5.26C685.54,75,694.82,79.34,699.4,88.1Z"/><path class="cls-1" d="M698.23,132.61c-1.08,3.23-2.22,6.44-3.32,9.63-.65,1.86,2.34,2.54,3,.69.86-2.47,1.73-5,2.57-7.44A5.12,5.12,0,0,1,698.23,132.61Z"/><path class="cls-1" d="M637,81.13a7.82,7.82,0,0,1,7.22-7.4,15.63,15.63,0,0,1,10.68,3.48c6.8,5.2,9.49,13.69,11.95,21.54.59,1.88,3.53,1,2.94-.87-3-9.53-6.62-19.95-16-25-3.82-2.06-8.71-3.08-12.89-1.55a11,11,0,0,0-7,9.89c-.09,2,3,1.87,3.06-.09Z"/><path class="cls-1" d="M630.45,95.5c25.66,9.48,45.31,30,64.9,48.2,1.44,1.34,3.55-.89,2.1-2.23-20.05-18.68-40.06-39.26-66.31-49-1.84-.68-2.52,2.31-.69,3Z"/><path class="cls-1" d="M613.39,139.66a50,50,0,0,0,29.55,17.64c11.73,2.37,23.95.79,35.12-3.3a92.76,92.76,0,0,0,18.29-9.21c1.66-1.07.07-3.69-1.59-2.62-18.79,12.1-43,18.25-63.92,7.79A43.61,43.61,0,0,1,616,138.07c-1.21-1.53-3.84.05-2.62,1.59Z"/><path class="cls-1" d="M622.47,82.33c-6.31-5.37-7-13.67-7.2-21.43-.1-4-.18-8.13-1.38-12a33.2,33.2,0,0,0-7.13-11.7c-10.33-11.75-25.33-18.42-40.59-20.72a107.07,107.07,0,0,0-24.66-.66,43,43,0,0,0-6.29.85,14,14,0,0,0-3,1c-.47.23-1.29.5-1.18.93s.77.77,1,1a30.44,30.44,0,0,0,10.33,6.25c7.5,2.9,15.57,3.8,23.26,6.08a47.84,47.84,0,0,1,19.74,11.37,46.15,46.15,0,0,1,8,10.39c2.34,4.11,4.07,8.56,6.66,12.52,5.25,8,14.26,11,23.08,13.4,1.91.52.91,3.42-1,2.9-7.58-2.07-15.5-4.53-21.18-10.27-6.42-6.48-8.53-15.92-14.26-22.94A44.12,44.12,0,0,0,566,35.26c-8.27-2.64-17-3.45-25.13-6.7A34.62,34.62,0,0,1,531,22.77c-1.21-1.05-2.88-2.31-3.12-4-.29-2,1.48-3.07,3-3.83,3.86-1.91,8.44-2.08,12.66-2.34a119.23,119.23,0,0,1,13-.15c16.3.76,32.8,5.55,45.57,16,7.15,5.88,13.92,13.64,15.53,23,1.57,9.11-1.45,21.46,6.53,28.26,1.48,1.27-.2,3.83-1.7,2.55Z"/><path class="cls-1" d="M594.9,63.66c-4.52-3.66-11.4-4-17-4.22a67.37,67.37,0,0,0-18.23,1.72C548.77,63.7,536.27,70,534.37,82.23c-.77,5,.3,10.38,4,14,4.28,4.12,10.83,5.09,16.44,6.1,12.07,2.17,24.71,3.1,36.62-.4a43.36,43.36,0,0,0,17.82-10c4.37-4.18,7.33-11.55,14.14-11.89,2-.1,1.73,3-.22,3.05-3.57.18-5.82,4-7.76,6.5a39.92,39.92,0,0,1-6.55,6.76A48.48,48.48,0,0,1,591.72,105c-12.93,3.7-26.71,2.39-39.72-.15-5.75-1.12-11.82-2.5-16.09-6.81-3.78-3.81-5.22-9.42-4.76-14.67,1.12-12.73,12.3-20.5,23.6-24a69,69,0,0,1,21.74-3c6.52.12,14.81.49,20.11,4.77,1.52,1.24-.17,3.8-1.7,2.56Z"/><path class="cls-1" d="M537.36,99.29A8.6,8.6,0,0,0,534,100c-.45.19-2.17.94-2.11,1.48s1.89,1.39,2.22,1.61c.82.53,1.66,1,2.5,1.54a82.5,82.5,0,0,0,10.53,5.12A162.2,162.2,0,0,0,569,116.58c7.26,1.8,15,3,22.4,1.16,3.85-1,7.55-2.84,9.64-6.35,2-3.27,3.3-7,5-10.37,3.83-7.71,8.37-15.09,14.63-21.07,1.43-1.37,3.45.93,2,2.29-6.61,6.32-11.19,14.32-15.09,22.51-1.81,3.79-3.2,8.19-6.25,11.2s-7.2,4.45-11.21,5.21c-8.23,1.54-16.65-.21-24.61-2.32a139.59,139.59,0,0,1-24.76-8.61c-2.27-1.1-4.51-2.28-6.67-3.59-1.63-1-4.32-2.18-5.24-3.94-2.26-4.33,6-6.44,8.74-6.47,2,0,1.74,3-.23,3.06Z"/><path class="cls-1" d="M593.33,62.52A41.25,41.25,0,0,0,541.4,41.29a29.39,29.39,0,0,0-12.22,8.1c-1.36,1.62-3.42,4.29-3.47,6.51-.07,2.65,3.7,2.28,5.49,2,11.47-1.71,22.68-4.65,34.33-5,10.86-.3,22.06,1.74,31.17,7.92A1.53,1.53,0,0,1,595,63.42c-9.25-6.27-20.66-7.92-31.63-7.34a155.4,155.4,0,0,0-19.91,2.71c-3.19.59-6.38,1.21-9.58,1.77-2.41.43-4.92.93-7.34.27a4.91,4.91,0,0,1-3.9-4.19c-.23-2.33,1.21-4.91,2.42-6.81a28.59,28.59,0,0,1,11.92-10,44.31,44.31,0,0,1,59.1,21.32c.84,1.78-1.91,3.14-2.76,1.35Z"/><path class="cls-1" d="M546.78,85.66a60.55,60.55,0,0,0,36.62,6.57A59,59,0,0,0,601.06,87c6.3-3,12.11-7.64,19.32-8.07l-.21,3c-12.26-4.54-17.82-17.14-22.8-28.21-3-6.59-6.14-13.31-11.47-18.34-5.12-4.83-11.81-7.55-18.48-9.48-1.9-.54-.9-3.44,1-2.89,6.45,1.85,12.85,4.47,18.05,8.81,5.36,4.47,8.94,10.49,11.91,16.73,5.34,11.23,10,25.73,22.79,30.48,1.31.48,1.42,2.85-.21,3-6,.36-11,3.83-16.13,6.58A61.06,61.06,0,0,1,590.64,94a65,65,0,0,1-29.49.28,62,62,0,0,1-16.07-6.05c-1.74-.94,0-3.49,1.7-2.55Z"/><path class="cls-1" d="M574.09,111.54A39.81,39.81,0,0,0,611,90.6c.92-1.75,3.47,0,2.56,1.69a42.82,42.82,0,0,1-39.72,22.3,1.53,1.53,0,0,1,.22-3Z"/><path class="cls-1" d="M636.44,1074.12c-10.05-9.62-13.23-23.56-11.81-37.06a74.36,74.36,0,0,1,4.91-19.64c2.76-6.9,6.37-13.55,11.86-18.66a37.1,37.1,0,0,1,20.05-9.25,57.43,57.43,0,0,1,11.72-.47c3.26.21,8.65,1.83,7.13,6.24-.92,2.66-3.43,4.64-5.39,6.54-2.74,2.64-5.28,5.52-7.75,8.41a155.63,155.63,0,0,0-13.9,19.19,241.17,241.17,0,0,0-12.65,23.42,49.73,49.73,0,0,0-4,11,29.28,29.28,0,0,0-.62,5.6c0,1.74.18,3.39-1.39,4.5s0,3.74,1.62,2.6c2.82-2,2.74-4.59,2.84-7.75a33.1,33.1,0,0,1,3.08-11.94,212.34,212.34,0,0,1,12-23A154.34,154.34,0,0,1,669.65,1012a119.44,119.44,0,0,1,8.2-8.79c2.16-2.07,4.53-4.32,5.43-7.27a7.22,7.22,0,0,0-3.43-8.26c-3.32-2.08-7.83-1.88-11.59-1.81-8,.16-16.1,1.9-23,6.12-13.28,8.11-20.11,24.31-22.83,39.06-3,16.15-.34,33.54,11.94,45.3,1.43,1.36,3.5-.89,2.08-2.26Z"/><path class="cls-1" d="M665,1018.53a59.94,59.94,0,0,1,27.11-5.64,58.56,58.56,0,0,1,14.1,2.1,11,11,0,0,1,2.88.94c1.37.88,1.34,2.48,1.38,3.94a37.61,37.61,0,0,1-.39,6.54,42.11,42.11,0,0,1-11.55,23.31c-7.53,7.65-18.26,12-28.21,15.49-11.25,4-22.93,6.47-34.48,9.38-1.92.48-1,3.42.88,2.94,11.32-2.85,22.76-5.31,33.81-9.15,10.71-3.72,22.18-8.38,30.26-16.59a44.8,44.8,0,0,0,12.39-25.55c.49-3.86,1.59-10.53-2.44-12.89-2-1.16-4.59-1.6-6.81-2.09a62.52,62.52,0,0,0-7.44-1.16,63.27,63.27,0,0,0-33.11,5.83c-1.78.84-.15,3.43,1.62,2.6Z"/><path class="cls-1" d="M710.4,1034.49c3.77.39,8.78.89,11.25,4.18s.77,8.82-.25,12.51c-2.35,8.53-6.65,16.43-11.64,23.69-5.36,7.79-11.88,15.68-21.52,17.89-8.25,1.9-17.2-.11-25-2.93-9.53-3.45-17.88-9.53-26.23-15.13-1.63-1.1-3,1.62-1.42,2.71,8.3,5.57,16.56,11.5,26,15,8.43,3.17,18,5.24,26.95,3.37,10.32-2.15,17.42-10.22,23.21-18.48,5.58-8,10.32-16.65,12.81-26.1,1.24-4.67,2.67-10.47-.63-14.62-3-3.79-8.31-4.66-12.83-5.13-1.94-.19-2.65,2.79-.69,3Z"/><path class="cls-1" d="M710.81,1034.11a7.84,7.84,0,0,1,5.33,8.86,15.63,15.63,0,0,1-6.08,9.45c-6.75,5.26-15.65,5.72-23.86,6.11-2,.09-1.88,3.15.09,3.06,10-.47,21-1.35,28.24-9.12,3-3.17,5.18-7.64,4.76-12.08a10.94,10.94,0,0,0-7.79-9.26c-1.89-.59-2.57,2.4-.69,3Z"/><path class="cls-1" d="M698.55,1024.19c-15.67,22.42-40.45,36.24-63.06,50.57a1.53,1.53,0,0,0,1.62,2.6c23.15-14.67,48.13-28.82,64.15-51.75,1.13-1.61-1.59-3-2.71-1.42Z"/><path class="cls-1" d="M660.15,996.5a50,50,0,0,0-24.55,24.11c-5.27,10.75-6.83,23-5.7,34.81a92.64,92.64,0,0,0,4.28,20c.61,1.87,3.55,1,2.93-.88-6.94-21.23-6.76-46.19,8.66-63.8A43.79,43.79,0,0,1,661,999.43c1.79-.78.93-3.72-.87-2.93Z"/><path class="cls-1" d="M580.41,1143.06a87.74,87.74,0,0,0,37.63-2.85c11.79-3.48,22.13-10,29.45-20a47.39,47.39,0,0,0,7.85-16.5,41.78,41.78,0,0,0,1.24-9c0-1.42.12-3.32-.78-4.51-1.14-1.51-3.68-1.54-5.4-1.69-7.64-.72-15.29,1.31-22.36,4a132,132,0,0,0-20.59,10.15c-13.22,8-26.19,18-42.1,19.43-2,.17-2.29-2.87-.32-3,15.56-1.37,28.22-11.47,41.18-19.19a134,134,0,0,1,21.71-10.58c7.43-2.76,15.37-4.61,23.33-3.8,3.12.32,6.43,1,7.73,4.19,1.13,2.81.7,6.31.35,9.24a48.15,48.15,0,0,1-6.15,18.1,55.89,55.89,0,0,1-28.74,24.2,90.2,90.2,0,0,1-44.54,4.79,1.54,1.54,0,0,1,.51-3Z"/><path class="cls-1" d="M629.68,1087.89c3.59-2.67,3.88-7.77,2.11-11.61-2.16-4.71-7.48-7.26-12.25-8.49-5.92-1.52-11.9-1.65-17.55.88s-11,6.22-16.29,9.51q-9.18,5.7-18.15,11.72c-1.64,1.1-3.46-1.37-1.82-2.47q9.28-6.23,18.79-12.12,4.89-3,9.85-6a47.55,47.55,0,0,1,9.09-4.52c6.14-2,12.91-1.3,19,.67,5.22,1.7,10.45,5.06,12.51,10.38,1.94,5,1,11.18-3.45,14.51a1.53,1.53,0,0,1-1.81-2.47Z"/><path class="cls-1" d="M570.34,1072.57a85.65,85.65,0,0,1,13.15-11.11c4.66-3.18,9.88-6.42,15.34-8,11.65-3.34,20.91,4.7,27.9,13,1.27,1.51-1.21,3.32-2.47,1.81-6.63-7.9-15.32-15.45-26.25-11.33-9.5,3.57-18.27,10.31-25.29,17.52-1.37,1.4-3.76-.52-2.38-1.93Z"/><path class="cls-1" d="M657.8,1096.2c2.9-1.71,6.11-3.47,9.59-2.66a6.29,6.29,0,0,1,5,6.43c0,3.3-1.18,6.74-2.3,9.81a50.51,50.51,0,0,1-4.54,9.32,57.68,57.68,0,0,1-33.68,24.84,71.35,71.35,0,0,1-26.1,2.18c-2-.19-1.46-3.21.5-3,13.35,1.28,27.28-1.16,38.86-8.11a52,52,0,0,0,22.07-26.2,43.24,43.24,0,0,0,1.41-4.58c.43-1.73,1.2-4.06.5-5.79-1.6-4-7.15-1.14-9.51.25-1.69,1-3.52-1.48-1.81-2.47Z"/><path class="cls-1" d="M634.19,1107.28a86.82,86.82,0,0,1-21.12,18.41c-8.6,5.21-18,6-27.83,6.29-2,.06-2.29-3-.32-3,9.51-.26,18.66-.92,26.93-6.08a85.3,85.3,0,0,0,20-17.5c1.27-1.51,3.65.41,2.38,1.93Z"/><path class="cls-1" d="M568.51,1070.17a33.33,33.33,0,0,0-11.38-6.87c-8.78-3.2-18.09-3-27-.48-9.84,2.74-18.27,8.49-25.74,15.31-1.44,1.32.36,3.8,1.81,2.47,7.61-6.95,16.14-12.7,26.24-15.24,8.36-2.11,17.21-2,25.22,1.43a29.54,29.54,0,0,1,10.17,7,18.42,18.42,0,0,1,3.71,5.31c1.05,2.66-.76,4.92-2.87,6.37-3.9,2.68-9.15,3-13.69,3.73a113.17,113.17,0,0,1-16.12,1.52c-9.5.06-18.94-2.27-28.35-.76.37,1,.71,1.92,1,2.89,5.69-.86,11.51-.21,17.22.33a95.31,95.31,0,0,0,20,0c5.49-.62,11.26-1.22,16.57-2.81,4-1.2,8.77-3.92,9.58-8.46S571.49,1073,568.51,1070.17Z"/><path class="cls-1" d="M580.14,1094.08c-5.07-4.3-13.15-6.33-19.66-5.77-2,.17-1.65,3.22.32,3a27,27,0,0,1,11,1.66c3.22,1.13,7,3,8.46,6.25,3.23,7.43-3.62,14.07-9.64,17.17-6.8,3.52-14.53,4.54-22.11,4.52-8,0-16.06-1.17-24-2.35-3-.45-6.07-.95-9.1-1.48,0,1,.06,2.08.06,3.13q7.93,1.37,15.91,2.4c8.74,1.11,17.68,2,26.46.79,7.87-1.06,16.17-3.92,21.73-9.84C584.6,1108.32,586.22,1099.26,580.14,1094.08Z"/><path class="cls-1" d="M581.51,1126.1c-7-4.45-16.28-4.68-24.25-5.58-2-.22-2.46,2.81-.5,3,4.16.46,8.33.93,12.46,1.61s8.62,1.64,11.86,4.41c3.92,3.36,3.07,8.72-.19,12.25s-8.14,5.6-12.62,7.06c-9.63,3.12-20.15,3.17-30.09,1.69a66,66,0,0,1-26.76-10,21,21,0,0,1-1.61,2.72q1.8,1.2,3.69,2.28c9.56,5.41,20.57,8.06,31.48,8.74,11.08.7,22.61-.64,32.44-6.13,4.25-2.38,8.09-5.86,9.16-10.8C587.58,1132.81,585.39,1128.58,581.51,1126.1Z"/><path class="cls-1" d="M548.35,1075.62a48,48,0,0,0-41,8.27,25,25,0,0,1,1.6,2.64,45.1,45.1,0,0,1,38.89-7.89C549.76,1079.15,550.24,1076.12,548.35,1075.62Z"/><path class="cls-1" d="M559.15,1103.34c-9.07,1.05-18.14,1.77-27.27,1.08a113,113,0,0,1-18.28-2.92q.31,1.62.6,3.27a110.43,110.43,0,0,0,17.18,2.67,147.4,147.4,0,0,0,28.09-1A1.53,1.53,0,0,0,559.15,1103.34Z"/><path class="cls-1" d="M542,1133.13a85.5,85.5,0,0,1-23-6.43c-1.22-.51-2.44-1-3.65-1.6-.07,1.08-.17,2.16-.29,3.23.7.31,1.39.62,2.1.92a89.17,89.17,0,0,0,24.35,6.9C543.49,1136.38,544,1133.35,542,1133.13Z"/><path class="cls-1" d="M577.67,1092.93c7.23-8.24,17.72-12.07,27.8-15.56,1.87-.64,3,2.21,1.12,2.86-9.54,3.29-19.68,6.82-26.53,14.63-1.3,1.48-3.69-.44-2.39-1.93Z"/><path class="cls-1" d="M254.69,1086.21c1-8.16,3.83-15.81,7.15-23.23,1.61-3.59,3.09-7.47,5.69-10.52a20.61,20.61,0,0,1,8.4-5.69c7.18-2.75,15.3-2.32,23.06-.62,8.55,1.87,17.08,4.7,24.08,10.08,6.51,5,11.86,11.38,17.07,17.53a56.3,56.3,0,0,1,6.73,9.35A21.34,21.34,0,0,1,349,1088c.3,1.17.31,1.92-1.07,1.18a29.29,29.29,0,0,1-2.84-2,100.2,100.2,0,0,1-9.18-8.13c-2.95-2.75-6.68-4.44-10.41-6a97.31,97.31,0,0,0-24.2-6.66c-17-2.28-34.25.72-47.58,9.73a1.5,1.5,0,0,0,0,2.47c7.2,4.26,12.22,10.7,17.84,16.53a57.39,57.39,0,0,0,8.91,7.82,73.47,73.47,0,0,0,12.38,6.37c8.66,3.73,17.5,7.28,26.69,9.39,8,1.85,15.84,1.5,22-3.4,7.07-5.64,9.49-14.48,9.39-23.22,0-2-3.37-2.56-3.35-.55.1,7.52-1.57,15.28-7.31,20.49a18,18,0,0,1-9,4.47c-4,.67-8.14-.09-12.13-1-8.62-2.07-16.91-5.44-25.06-9a66.9,66.9,0,0,1-11.87-6.11,55.63,55.63,0,0,1-8.47-7.51c-5.62-5.89-10.76-12.36-18-16.64l0,2.47c13.28-9,30.59-11.64,47.43-8.91a91.36,91.36,0,0,1,14.15,3.49,69,69,0,0,1,12.89,5.39c3.9,2.26,6.58,6,10.05,8.73,1.7,1.37,3.49,2.65,5.29,3.9,1.36,1,2.78,1.91,4.46,1.4,11.35-3.45-18.29-33.15-22.41-36.73-7.08-6.13-15.26-9.5-24.29-11.93-8.2-2.21-16.84-3.32-24.91-1.42a27.14,27.14,0,0,0-10.78,5c-3.35,2.7-5.36,6.2-7.13,10-4.19,8.91-7.94,18.11-9.19,28-.25,2,3.09,2.53,3.34.56Z"/><path class="cls-1" d="M263.77,1087.2A75.24,75.24,0,0,1,276,1103.72c3.33,6.17,5.43,12.76,9.17,18.77,6.72,10.81,16.7,19.43,25.44,28.83,2.2,2.37,4.34,4.79,6.32,7.32a20,20,0,0,1,2.75,3.72c.4.92.41.4-.1.74a4.65,4.65,0,0,1-1.53.27,15.08,15.08,0,0,1-2.93,0c-6.65-.58-13.5-3.4-19.36-6.62-12.36-6.79-21.89-17.31-28.46-29a98.33,98.33,0,0,1-12.66-42c-.12-2-3.44-1.74-3.32.26A100.1,100.1,0,0,0,263,1126.43c6.6,12.49,16,23.84,28.78,31.53a62.66,62.66,0,0,0,20.35,8.12c3,.57,7.07,1,9.75-.38,3-1.57.87-4.62-.65-6.71-8.32-11.34-19.76-20.38-28.52-31.41a63.23,63.23,0,0,1-6.46-9.68c-2.08-4-3.62-8.12-5.54-12.14a77.35,77.35,0,0,0-14.28-20.31c-1.49-1.54-4.13.2-2.63,1.75Z"/><path class="cls-1" d="M291.47,1130.79a51.11,51.11,0,0,0,30.92,12.27c10.8.43,24.68-3.68,27.71-14.15,1.83-6.3-2-12.4-6-17.69-.68-.93-2.57-.93-2.87.2-.86,3.18-1.9,6.09-4.14,8.6a19.77,19.77,0,0,1-7,4.93c-5.92,2.53-12.87,2.43-19.34.49a46.76,46.76,0,0,1-18.24-11,74.12,74.12,0,0,1-7.22-7.94,45,45,0,0,0-7-7.52,1.55,1.55,0,1,0-2,2.35c4.81,3.83,7.95,9.29,12.26,13.59a56,56,0,0,0,14.52,10.72c10.11,5,22.4,6.12,31.64.53,5.24-3.17,8.06-7.81,9.59-13.44l-2.88.2c4.25,5.73,8.1,12.4,3.53,18.44-3.67,4.85-10.21,7.49-16.55,8.28-12.27,1.53-25.61-3-35-11.26a1.55,1.55,0,1,0-2,2.36Z"/><path class="cls-1" d="M258.54,1076.7a40.61,40.61,0,0,1,10.94-12.82,32.44,32.44,0,0,1,15.3-5.66c12.39-1.46,24.89,2.37,36.72,6.58,2.05.73,3.28-2.08,1.21-2.81-12.77-4.55-26.42-8.69-39.75-6.71a35.06,35.06,0,0,0-16.11,6.42,44.87,44.87,0,0,0-11.44,13.65c-1,1.71,2.14,3,3.13,1.35Z"/><path class="cls-1" d="M329.22,1093.78c-9.35-9.61-21.73-15.93-34.89-19a95.6,95.6,0,0,0-20-2.37c-5.85-.11-12.08,0-16.86,3.08-1.71,1.1.38,3.69,2.09,2.58,4.46-2.89,10.64-2.67,16.06-2.54a91.83,91.83,0,0,1,18.38,2.32c12.2,2.85,23.93,8.76,32.6,17.68,1.5,1.54,4.13-.2,2.63-1.75Z"/><path class="cls-1" d="M281.22,1132.25c-7.35-6.23-10.55-15.2-13.45-23.59q-5.29-15.35-10.07-30.83c-.6-1.94-3.92-1.71-3.32.26q5,16.2,10.55,32.28c3.05,8.77,6.64,17.74,14.29,24.24a1.55,1.55,0,1,0,2-2.36Z"/><path class="cls-1" d="M514,1106.73c-8.07-6-17.72-8.86-27.29-11.45s-19.33-5.18-29.05-2.07a44.48,44.48,0,0,0-11.88,6.22,70.08,70.08,0,0,0-10.82,9,11.65,11.65,0,0,0-2.75,12c1.27,4,3.88,7.82,6.48,11.13A36.7,36.7,0,0,0,461,1145.29c1.94.36,2.25-2.69.32-3a32.68,32.68,0,0,1-18.45-10.5,44,44,0,0,1-6.64-9.6c-2.12-4.29-2.19-8.37,1.27-11.93a71.24,71.24,0,0,1,9.47-7.85,44.2,44.2,0,0,1,10.81-6c9-3.24,18.32-.83,27.2,1.56,9.51,2.56,19.21,5.3,27.24,11.24a1.53,1.53,0,0,0,1.81-2.47Z"/><path class="cls-1" d="M454.3,1113.62a144.34,144.34,0,0,1,33.36-4.26c5.73,0,11.72,0,17.2,1.86a27.5,27.5,0,0,1,3.76,1.59c1.1.57,3.2,1.6,3.4,3,.26,1.76-2.36,3.9-3.54,4.83a58.69,58.69,0,0,1-6.72,4.27q-6.88,4-14.1,7.46a212.11,212.11,0,0,1-29.85,11.44c-4.21,1.28-8.35,2.78-12.56,4.09-2.95.92-6.23,1.87-8.58,4-6.49,5.87,4.78,14.26,9.53,16.88,14.63,8.08,32.3,1.72,45.08-7,8.08-5.51,15.57-12.68,20.4-21.25a38.78,38.78,0,0,0,3.11-32.11c-.67-1.85-3.46-.58-2.79,1.27,3.5,9.72,2,20.71-3.11,29.58-4.34,7.51-10.76,13.8-17.75,18.86-12.21,8.86-30.31,16.14-44.49,7.37a29.05,29.05,0,0,1-4.92-3.84c-1.34-1.3-4.21-3.82-4-5.89.28-2.57,4.84-3.8,6.82-4.47,8.57-2.88,17.29-5.34,25.8-8.39a198.92,198.92,0,0,0,28.44-12.83c4.07-2.24,8.49-4.45,12.07-7.45,2.35-2,5.38-5.38,3.73-8.62-1.46-2.86-5.24-4.4-8.08-5.44-5.35-2-11.09-2.23-16.74-2.25a147.87,147.87,0,0,0-36,4.28c-1.9.47-1.42,3.5.5,3Z"/><path class="cls-1" d="M514.79,1108.67c-.18-18-10.79-36.78-29-41.62a62.05,62.05,0,0,0-33.52.16c-8.2,2.47-16.53,6.81-22.08,13.48-3,3.63-5.19,8.35-5,13.16.15,2.9,1.38,5.58,2.61,8.16,1.62,3.41,3.26,6.82,4.89,10.23a1.54,1.54,0,0,0,2.91-.88c-.36-3.91-.58-8,.86-11.78a14.06,14.06,0,0,1,6.44-7.18c6.65-3.64,14.57-2,20.75,1.81,1.66,1,3.49-1.42,1.81-2.47-7.25-4.52-16.57-6.33-24.31-1.86a17.37,17.37,0,0,0-7.29,7.94c-1.93,4.41-1.72,9.36-1.28,14l2.91-.88-3.59-7.5a43.22,43.22,0,0,1-3.31-7.66c-1.05-4.06.44-8.36,2.78-11.7,4.59-6.56,12.32-10.74,19.72-13.34,9.67-3.39,20.36-3.64,30.35-1.61A35,35,0,0,1,502.66,1082a43.87,43.87,0,0,1,9.08,26.35c0,2,3.07,2.29,3,.32Z"/><path class="cls-1" d="M463.4,1079.16c5.76-.3,11.23-.26,16.68,1.88a66.5,66.5,0,0,1,12.33,6.41c7.28,4.8,13.5,11.19,16.75,19.39.73,1.83,3.52.57,2.8-1.26-3.5-8.84-10.34-15.82-18.23-20.92a68.78,68.78,0,0,0-13.21-6.74c-5.75-2.14-11.58-2.1-17.63-1.79-2,.1-1.45,3.13.51,3Z"/><path class="cls-1" d="M511.29,1118.26a49.68,49.68,0,0,1-18.44,28.42c-9.47,7.27-21.16,11.11-33,11.93-2,.14-1.46,3.16.5,3,12.56-.87,25-5.13,34.91-13a52.84,52.84,0,0,0,19.08-30.1c.42-1.93-2.63-2.23-3.05-.32Z"/><path class="cls-1" d="M435,1123.8c-2.28,9.67-9.42,17.31-18.26,21.55-5.26,2.51-11.14,3.76-16.85,4.79a75.12,75.12,0,0,1-16.32,1.34,40.87,40.87,0,0,1-17.48-4.43c-1.73-.91-.57-3.75,1.18-2.83,11.6,6.11,25.2,4.6,37.52,1.79,6.4-1.45,12.46-3.64,17.59-7.84a27.52,27.52,0,0,0,9.58-14.78c.45-1.9,3.49-1.51,3,.41Z"/><path class="cls-1" d="M435.41,1124.09c-.08,5.65-.26,11.4-2.08,16.8-2,5.91-6.21,10-11.44,13.22-11,6.75-23.91,9.22-36.65,9.33-6.46.06-13.44,0-19.73-1.59-5.53-1.4-10.06-5.21-13.26-9.85a16.21,16.21,0,0,1-3.31-8.72c-.06-3.08,1-6.24,1.94-9.15a21.35,21.35,0,0,1,4.12-7.72,23.57,23.57,0,0,1,7.51-5.27c14.72-7.05,31.37-8.8,47.4-6.35,1.95.3,1.55,3.34-.41,3a79.5,79.5,0,0,0-38.68,3.21c-5.46,1.94-11.92,4.25-15.05,9.48a30.82,30.82,0,0,0-2.95,7.79c-.89,3.25-1.17,6.17.34,9.27,2.33,4.8,6.73,9.22,11.84,10.94a38.34,38.34,0,0,0,8.92,1.42c2.88.25,5.76.41,8.64.45,11.54.19,23.37-1.47,33.78-6.67,5.79-2.89,11.33-6.7,13.77-12.94,2.1-5.39,2.19-11.38,2.26-17.1,0-2,3.06-1.54,3,.41Z"/><path class="cls-1" d="M434.06,1124.46c-3.28,1.51-6.7,2.87-10.37,2.14a26.21,26.21,0,0,1-9-4.15,33.86,33.86,0,0,1-7.79-7,75.86,75.86,0,0,0-7-8c-9.63-8.94-22.16-13.69-33.46-20.06-4.52-2.54-12.77-6.22-11.39-12.72.64-3,3.41-4.18,6.12-4.68a47.09,47.09,0,0,1,10.2-.66c14,.46,27.41,6.5,38.56,14.68A90.44,90.44,0,0,1,426.81,1100c2.44,3,5.11,6.27,6.46,10,1.49,4.06,1.25,8.42,1,12.65-.13,2-3.17,1.56-3-.4.25-3.56.52-7.27-.62-10.71-1-3.11-3.18-5.79-5.16-8.33a87.54,87.54,0,0,0-13.2-13.6c-9.66-8-21.17-14.26-33.6-16.46a51,51,0,0,0-9.71-.83c-2.85,0-6.38,0-9,1.16-3.94,1.67-.65,5.66,1.51,7.2a78,78,0,0,0,7.59,4.58c9.92,5.46,20.59,9.85,29.54,16.91a52.17,52.17,0,0,1,6.65,6.22c2.5,2.8,4.51,6,7.31,8.53a33.86,33.86,0,0,0,8.77,5.71c4.18,1.85,7.61.89,11.61-.95,1.79-.83,3,2,1.21,2.81Z"/><path class="cls-1" d="M430.15,1123.74c-2-6-6-11.06-10.1-15.74a89.39,89.39,0,0,0-12-11.36,92.09,92.09,0,0,0-29.44-15.53c-1.88-.59-.7-3.42,1.18-2.83a94.4,94.4,0,0,1,43.05,28.28c4.12,4.76,8.07,10,10.11,16,.63,1.86-2.18,3.08-2.82,1.21Z"/><path class="cls-1" d="M404.54,1116.81c-15.47-1.58-31.65-1.55-46.35,4.11-2.65,1-6.37,3.89-8.68.91-1.91-2.48-2.33-5.84-2.35-8.86,0-6.68,2.06-13.06,7.08-17.64,6-5.47,14.28-7,22.15-6.68,2,.08,1.55,3.11-.41,3-6.47-.26-13.24.88-18.49,4.92-5,3.85-7.2,9.63-7.28,15.83a19.19,19.19,0,0,0,.36,4.28,9,9,0,0,0,.77,2.24c.67,1.33,1.23,1,2.39.51a67.16,67.16,0,0,1,9.25-3.35,88.28,88.28,0,0,1,19.52-3.1,148.83,148.83,0,0,1,22.44.76c2,.2,1.56,3.24-.4,3Z"/><path class="cls-1" d="M405.8,1116.28c-14.37-12.18-34.32-12.88-51.63-7.42-1.86.59-3.09-2.22-1.21-2.82,18.33-5.78,39.45-5.11,54.69,7.8,1.5,1.27-.34,3.72-1.85,2.44Z"/><path class="cls-1" d="M431.18,1145.83c.13,6.2-.46,12.7-3.34,18.3-3.16,6.15-8.72,9.86-15,12.29-13.48,5.2-29.27,4.65-42.83,0-6.5-2.22-12.76-5.92-16.37-11.94a1.57,1.57,0,0,1,.6-2.36,34,34,0,0,1,11.21-3.46,1.53,1.53,0,0,1,.41,3,31.32,31.32,0,0,0-10.41,3.24l.6-2.35c6.21,10.34,20.2,13.33,31.34,14.2a57.21,57.21,0,0,0,20.34-1.88c6-1.75,12.36-4.53,16.05-9.87s4.53-12.4,4.4-18.8c0-2,3-2.39,3-.42Z"/><path class="cls-1" d="M380.51,1168.23c10.36,1.23,21.4,1.64,31.18-2.58,7.65-3.31,14.46-9.61,16.51-17.91.46-1.9,3.51-1.52,3,.4-2.23,9-9,16-17.32,19.86-10.49,4.93-22.57,4.6-33.81,3.27a1.53,1.53,0,0,1,.4-3Z"/><path class="cls-1" d="M779.71,161.61a88.05,88.05,0,0,0-21.43-31.08c-8.95-8.42-19.77-14.08-32.09-15.37A47.58,47.58,0,0,0,708,116.7a41.41,41.41,0,0,0-8.38,3.45c-1.24.68-2.92,1.57-3.5,2.95-.73,1.75.53,4,1.25,5.51,3.24,7,8.85,12.55,14.77,17.28a131.9,131.9,0,0,0,19.14,12.67c13.53,7.41,28.77,13.54,38,26.57,1.14,1.61-1.33,3.42-2.47,1.81-9-12.75-24.13-18.59-37.33-25.89a133.11,133.11,0,0,1-20.08-13.43c-6.13-5-11.73-11-15-18.23-1.29-2.85-2.41-6-.28-8.78,1.86-2.4,5.1-3.79,7.81-5a48,48,0,0,1,18.73-3.81A55.83,55.83,0,0,1,756,124.46a90.13,90.13,0,0,1,26.57,36.06,1.53,1.53,0,0,1-2.86,1.09Z"/><path class="cls-1" d="M707.23,146.85c-4.12-1.75-8.67.57-11.1,4-3,4.24-2.49,10.12-1.15,14.86,1.66,5.88,4.56,11.11,9.59,14.72s10.92,6.37,16.43,9.28q9.56,5,19.27,9.77c1.77.86.56,3.67-1.22,2.81q-10-4.89-19.93-10.12c-3.39-1.8-6.78-3.62-10.13-5.49a47.52,47.52,0,0,1-8.5-5.57c-4.86-4.28-7.63-10.5-9-16.73-1.16-5.36-.89-11.57,2.66-16,3.35-4.21,9.15-6.52,14.28-4.34a1.53,1.53,0,0,1-1.22,2.81Z"/><path class="cls-1" d="M723.9,205.83a86,86,0,0,1-16.22-5.76c-5.1-2.43-10.53-5.3-14.64-9.22-8.76-8.38-6.48-20.43-2.81-30.67.67-1.86,3.48-.63,2.82,1.22-3.49,9.71-5.63,21,3.43,28.39,7.87,6.4,18.12,10.58,27.88,13,1.9.48,1.45,3.51-.46,3Z"/><path class="cls-1" d="M700.23,118.38c-2.93-1.65-6.07-3.54-7.13-6.95a6.28,6.28,0,0,1,3-7.56c2.86-1.64,6.42-2.38,9.63-3a50.48,50.48,0,0,1,10.34-.77,57.66,57.66,0,0,1,38.43,16.56,71.41,71.41,0,0,1,15,21.45c.83,1.79-2,2.88-2.86,1.09-5.62-12.18-14.75-23-26.59-29.48a52,52,0,0,0-33.75-5.85,42.13,42.13,0,0,0-4.67,1.09c-1.71.5-4.1,1-5.25,2.48-2.67,3.41,2.63,6.75,5,8.09,1.7,1,.5,3.78-1.22,2.81Z"/><path class="cls-1" d="M721.7,133.19a86.66,86.66,0,0,1,26.54,9c8.84,4.79,14.27,12.49,19.46,20.85,1,1.67-1.43,3.49-2.47,1.82-5-8.09-10.2-15.65-18.83-20.2a85.48,85.48,0,0,0-25.17-8.42c-1.94-.33-1.48-3.36.47-3Z"/><path class="cls-1" d="M762.91,257.19s-.06-.07-.08-.11c-9.71-3.07-18.86-7.51-26.06-14.87-6-6.17-10.38-13.87-11.47-22.51a29.59,29.59,0,0,1,.92-12.31,18.53,18.53,0,0,1,2.71-5.88c1.77-2.25,4.64-1.82,7-.73,4.28,2,7.24,6.37,10.12,9.94a111.91,111.91,0,0,1,9.44,13.16c3.61,6.1,6.06,12.83,9.57,18.91a5.78,5.78,0,0,1,1.38-3.68c-1.33-2.53-2.53-5.15-3.72-7.73a95.17,95.17,0,0,0-10.11-17.24c-3.3-4.43-6.73-9.1-10.77-12.89-3.08-2.89-7.81-5.6-12.13-4s-6,7.39-6.92,11.38a33.41,33.41,0,0,0-.2,13.29c1.67,9.19,6.56,17.12,13.21,23.57,7.32,7.12,16.53,11.5,26.19,14.52a1.63,1.63,0,0,0,1.18-.08A6.31,6.31,0,0,1,762.91,257.19Z"/><path class="cls-1" d="M789.25,220.41h0q-1.23-3.12-2.53-6.21c-3.45-8.12-7.19-16.28-12.65-23.26-4.89-6.26-11.54-12-19.45-13.81-7.08-1.64-15.73,1.53-17.13,9.39-1.17,6.55,1.15,14.55,4.92,19.89,1.14,1.62,3.61-.2,2.48-1.81a27,27,0,0,1-4.13-10.37c-.65-3.36-1-7.56,1.13-10.46,4.79-6.53,14-4,19.69-.33,6.46,4.1,11.24,10.27,15,16.82a160.46,160.46,0,0,1,9.69,21A5.23,5.23,0,0,1,789.25,220.41Z"/><path class="cls-1" d="M813.31,211.22a5.54,5.54,0,0,1,1.84.31,77.22,77.22,0,0,0-7.83-25c-5-9.92-12-19.21-21.64-24.92-4.2-2.48-9.14-4.05-13.95-2.48-4.49,1.47-7,5.49-7.23,10.09-.33,8.25,4.16,16.43,7.41,23.76.79,1.8,3.66.71,2.86-1.09-1.69-3.83-3.39-7.66-4.88-11.58S767,172,767.72,167.83c.92-5.09,6-7.05,10.67-6s8.94,4.22,12.46,7.35c7.56,6.75,12.89,15.81,16.63,25.13a70.78,70.78,0,0,1,4.46,17.09A5.92,5.92,0,0,1,813.31,211.22Z"/><path class="cls-1" d="M763.41,250.2a45.09,45.09,0,0,1-22.94-28c-.52-1.9-3.38-.79-2.86,1.09A48,48,0,0,0,762.11,253,5.67,5.67,0,0,1,763.41,250.2Z"/><path class="cls-1" d="M776.4,228.1c-.86-2.09-1.76-4.16-2.75-6.2a146.77,146.77,0,0,0-15.07-23.72,1.53,1.53,0,0,0-2.47,1.81c5.48,7.3,10.67,14.77,14.67,23,1.06,2.18,2,4.4,2.93,6.63A4.93,4.93,0,0,1,776.4,228.1Z"/><path class="cls-1" d="M798.58,216.42a80.29,80.29,0,0,0-5.25-17.75c-.79-1.81-3.65-.72-2.86,1.09a79.45,79.45,0,0,1,5.23,17.91A5,5,0,0,1,798.58,216.42Z"/><path class="cls-1" d="M737.79,189.23c-10.76-2.09-19.36-9.22-27.45-16.17-1.49-1.28.4-3.69,1.9-2.4,7.66,6.58,15.82,13.56,26,15.54,1.93.38,1.47,3.41-.47,3Z"/><path class="cls-1" d="M839.59,463.83c-8.12.84-16.23,0-24.24-1.3-3.89-.64-8-1.11-11.64-2.73a21.18,21.18,0,0,1-7.72-6.14c-4.56-5.7-6.31-12.9-6.75-20.07-.49-7.88,0-16,3.26-23.23,3.08-6.78,7.77-12.82,12.29-18.7a49.85,49.85,0,0,1,7.19-7.89,20.15,20.15,0,0,1,4.14-2.9c1-.51,1.77-.68,1.42.69a22.73,22.73,0,0,1-1.18,2.91,83.47,83.47,0,0,1-5.36,9.78c-1.85,3.18-2.48,6.81-3,10.4a79.37,79.37,0,0,0,.07,22.62c2.34,15.34,9.84,29.83,22.07,39.58a1.54,1.54,0,0,0,2.36-.57c2.17-7.21,7-13,11.12-19.15a47.69,47.69,0,0,0,5.14-9.47,59.3,59.3,0,0,0,2.82-12.21c1.27-8.38,2.32-16.87,1.89-25.37-.37-7.44-2.79-14.2-9.14-18.53-7.32-5-16.46-5.23-24.84-3.26-1.89.44-1.56,3.49.37,3,7.2-1.69,15.1-1.89,21.66,2a17.71,17.71,0,0,1,6.7,6.93c1.7,3.34,2.09,7.15,2.24,10.84.32,8-.71,16-1.91,23.86a54.32,54.32,0,0,1-2.7,11.7,46.62,46.62,0,0,1-5,9c-4.17,6.18-9,12.06-11.2,19.31l2.36-.56c-12.17-9.71-19.36-24.31-21.23-39.63a74,74,0,0,1-.44-13.14,56.7,56.7,0,0,1,1.74-12.44c1.14-3.9,4-7,5.72-10.67.86-1.78,1.61-3.62,2.33-5.46.55-1.4,1.09-2.84.15-4.21-6.35-9.2-27,23.1-29.32,27.48-4,7.51-5,15.39-5,23.81.07,7.66,1.31,15.46,5.29,22.13a26.55,26.55,0,0,0,7.74,8.36c3.49,2.35,7.39,3.36,11.48,4.11,9.69,1.77,19.53,3.09,29.38,2.06,2-.2,1.6-3.25-.36-3Z"/><path class="cls-1" d="M838.11,455.66a66.48,66.48,0,0,1,12.61-14.27c5-4.24,10.82-7.49,15.6-12,8.59-8.2,14.21-18.78,20.91-28.45,1.69-2.43,3.45-4.82,5.35-7.09a18.18,18.18,0,0,1,2.84-3.21c.78-.55.28-.44.74-.07a4.64,4.64,0,0,1,.68,1.28,13.57,13.57,0,0,1,.8,2.56c1.22,5.95.34,12.55-1.19,18.37-3.23,12.27-10.8,22.87-20.28,31.13a96.51,96.51,0,0,1-37,20.05c-1.89.54-.75,3.39,1.13,2.85A98.78,98.78,0,0,0,876.05,448c10.24-8.45,18.62-19.15,22.62-32A50.82,50.82,0,0,0,901,396.48c-.25-2.78-.9-6.41-3-8.46-2.33-2.32-4.68.23-6.28,2-8.69,9.7-14.31,21.66-22.57,31.69a56.51,56.51,0,0,1-7.59,7.72c-3.26,2.68-6.84,4.9-10.19,7.45a68.75,68.75,0,0,0-15.71,16.84c-1.08,1.64,1.29,3.58,2.38,1.93Z"/><path class="cls-1" d="M872.62,422.09a41.51,41.51,0,0,0,3.53-29.7c-2.46-9.55-10.13-20.82-21-21.24-6.55-.25-11.38,4.43-15.42,9a1.54,1.54,0,0,0,1,2.48,22.25,22.25,0,0,1,9.37,1.78,20.27,20.27,0,0,1,6.61,5,24.72,24.72,0,0,1,5.64,16.82,38.23,38.23,0,0,1-5.67,18.32,63.33,63.33,0,0,1-5.7,8,39,39,0,0,0-5.37,7.71c-.85,1.79,1.95,3,2.8,1.25,2.39-5,6.81-8.95,9.79-13.64a46.33,46.33,0,0,0,6.43-15c2.13-9.94-.11-20.93-8-27.83-4.45-3.91-9.67-5.39-15.49-5.51l1,2.47c4.38-4.94,9.76-9.75,16.79-7,5.64,2.17,9.93,7.33,12.38,12.71,4.75,10.43,3.92,23.09-1.46,33.09-.94,1.74,1.87,3,2.8,1.25Z"/><path class="cls-1" d="M829.42,462.49a43.9,43.9,0,0,1-15.24-6.84,30.72,30.72,0,0,1-9.54-12.19c-4.71-10.54-4.37-22.3-3.48-33.56.15-1.95-2.88-2.43-3-.46-1,12.16-1.29,25,4.17,36.24a33.58,33.58,0,0,0,10.47,12.74,48.69,48.69,0,0,0,16.19,7.1c1.9.5,2.35-2.53.46-3Z"/><path class="cls-1" d="M827,396.94c-6.74,10.25-9.5,22.44-8.94,34.62a78.86,78.86,0,0,0,3.07,18c1.46,5.15,3.2,10.58,7.46,14.11,1.52,1.26,3.45-1.13,1.93-2.39-4-3.28-5.42-8.74-6.73-13.52a75.69,75.69,0,0,1-2.69-16.59c-.52-11.29,2-22.82,8.29-32.33,1.08-1.64-1.3-3.57-2.39-1.93Z"/><path class="cls-1" d="M876.76,430.75c-4,7.77-11.79,12.49-19.08,16.82q-13.35,7.94-26.95,15.41c-1.7.94-.6,3.8,1.13,2.85q14.25-7.83,28.22-16.14c7.61-4.54,15.29-9.6,19.48-17.69.91-1.75-1.89-3-2.8-1.25Z"/><path class="cls-1" d="M792.16,218.18c-3.73,9.32-4.08,19.39-4.16,29.3s-.12,20,5.36,28.63a44.33,44.33,0,0,0,9,9.92,69.26,69.26,0,0,0,11.44,8.18,11.61,11.61,0,0,0,12.31-.37c3.59-2.25,6.59-5.74,9.13-9.1a36.73,36.73,0,0,0,7.64-25c-.14-2-3.17-1.5-3,.46a32.67,32.67,0,0,1-5.49,20.51,44.09,44.09,0,0,1-7.61,8.86c-3.6,3.13-7.54,4.23-11.86,1.79a72.52,72.52,0,0,1-10-7.17,44,44,0,0,1-8.5-8.95C791,267.34,791,257.7,791,248.51c.07-9.85.26-19.92,4-29.2a1.53,1.53,0,0,0-2.85-1.13Z"/><path class="cls-1" d="M814,274.23A144.23,144.23,0,0,1,801.39,243c-1.5-5.52-3-11.33-2.56-17.1a27.69,27.69,0,0,1,.58-4c.28-1.21.74-3.5,2-4,1.63-.7,4.37,1.3,5.56,2.21a57.37,57.37,0,0,1,5.83,5.41q5.64,5.65,10.8,11.75a211.59,211.59,0,0,1,18.63,26c2.31,3.75,4.8,7.38,7.13,11.12,1.64,2.62,3.39,5.55,6,7.28,7.33,4.8,12.59-8.23,13.93-13.49,4.11-16.19-6.52-31.68-18.18-41.83-7.37-6.43-16.21-11.86-25.72-14.36A38.79,38.79,0,0,0,793.6,217c-1.62,1.12.31,3.5,1.93,2.38,8.52-5.85,19.52-7.2,29.4-4.48,8.37,2.3,16.08,6.91,22.75,12.39,11.66,9.57,23.29,25.24,18.39,41.18a29,29,0,0,1-2.46,5.73c-.92,1.62-2.63,5-4.69,5.35-2.56.38-4.9-3.73-6-5.47-5-7.56-9.55-15.37-14.66-22.83A197,197,0,0,0,818.6,227c-3.19-3.37-6.45-7.09-10.26-9.79-2.5-1.78-6.57-3.84-9.29-1.43-2.4,2.13-2.93,6.19-3.21,9.19-.53,5.68.65,11.3,2.06,16.77a147.83,147.83,0,0,0,13.26,33.73c.93,1.72,3.74.48,2.8-1.26Z"/><path class="cls-1" d="M793.85,217c-17.33,4.72-32.85,19.76-32.92,38.57a61.89,61.89,0,0,0,8.64,32.38c4.47,7.3,10.78,14.26,18.63,17.95,4.28,2,9.4,2.9,14,1.45,2.77-.88,5-2.74,7.23-4.59q4.33-3.64,8.66-7.33a1.54,1.54,0,0,0-1.59-2.59c-3.7,1.35-7.63,2.61-11.62,2.16a14,14,0,0,1-8.57-4.42C791.1,285,790.64,277,792.8,270c.58-1.88-2.26-3-2.85-1.13-2.54,8.16-1.93,17.64,4.36,24a17.24,17.24,0,0,0,9.52,5.05c4.75.75,9.49-.71,13.91-2.32L816.15,293l-6.35,5.38a43.24,43.24,0,0,1-6.56,5.13c-3.67,2.05-8.21,1.7-12,.28-7.51-2.79-13.51-9.2-17.9-15.7-5.73-8.5-8.68-18.77-9.25-28.95a35,35,0,0,1,7.06-23.7A43.81,43.81,0,0,1,794.31,220c1.88-.51,1.44-3.55-.46-3Z"/><path class="cls-1" d="M778.32,274.16c-1.75-5.5-3.1-10.8-2.41-16.62A66.91,66.91,0,0,1,779,244c2.8-8.26,7.4-15.9,14.51-21.13,1.59-1.16-.33-3.54-1.92-2.38-7.67,5.63-12.69,14-15.63,22.93a68.59,68.59,0,0,0-3.16,14.48c-.62,6.11.89,11.75,2.73,17.51.59,1.88,3.39.62,2.8-1.25Z"/><path class="cls-1" d="M804,217.92a49.77,49.77,0,0,1,32.16,10.64c9.44,7.33,16.11,17.66,19.91,28.91.63,1.86,3.42.61,2.79-1.25-4-11.93-11.28-22.86-21.37-30.5a52.9,52.9,0,0,0-34-10.83c-2,.08-1.49,3.11.46,3Z"/><path class="cls-1" d="M828.69,290.31c9.93-.25,19.14,4.72,25.47,12.2,3.77,4.45,6.46,9.83,8.91,15.08A75.18,75.18,0,0,1,868.49,333a40.79,40.79,0,0,1,.15,18c-.45,1.91-3.49,1.51-3-.41,3-12.78-1.93-25.55-7.77-36.76-3-5.82-6.68-11.13-12-15a27.6,27.6,0,0,0-16.72-5.52c-2,0-2.35-3-.38-3Z"/><path class="cls-1" d="M828.87,289.86c5.49-1.36,11.1-2.65,16.78-2.25,6.23.44,11.26,3.48,15.69,7.71,9.31,8.91,15,20.8,18.31,33.1,1.69,6.23,3.4,13,3.45,19.49,0,5.71-2.49,11-6.16,15.32a16.15,16.15,0,0,1-7.6,5.41c-3,.84-6.29.63-9.34.44a21.55,21.55,0,0,1-8.51-2,23.52,23.52,0,0,1-7-5.94C833.94,348.67,828,333,826.34,316.88c-.21-2,2.83-2.35,3-.38a79.5,79.5,0,0,0,12.9,36.61c3.26,4.79,7.13,10.45,13,12.16a31.22,31.22,0,0,0,8.29.88c3.36,0,6.26-.43,8.88-2.68,4.05-3.47,7.22-8.85,7.59-14.22a37.8,37.8,0,0,0-.9-9q-.72-4.27-1.74-8.48c-2.74-11.2-7.35-22.23-15-31-4.27-4.88-9.36-9.27-16-10-5.76-.68-11.58.76-17.12,2.14-1.91.47-2.27-2.57-.38-3Z"/><path class="cls-1" d="M829.58,291.07c2.29,2.79,4.46,5.75,4.69,9.49a26.15,26.15,0,0,1-1.74,9.72,33.72,33.72,0,0,1-4.83,9.32,76.69,76.69,0,0,0-6,8.77c-6.22,11.58-7.64,24.91-10.93,37.46-1.31,5-2.79,13.92-9.42,14.23-3,.14-4.91-2.24-6.08-4.73a47.42,47.42,0,0,1-3.23-9.7c-3.09-13.65-.65-28.16,4.44-41a90.5,90.5,0,0,1,11.28-20.34c2.29-3.12,4.76-6.54,8-8.77,3.55-2.47,7.83-3.34,12-4.13,1.94-.37,2.31,2.67.38,3-3.51.66-7.16,1.34-10.2,3.31-2.75,1.78-4.79,4.54-6.76,7.11A87.7,87.7,0,0,0,801.36,321c-5.28,11.36-8.43,24.09-7.41,36.67a52.09,52.09,0,0,0,1.66,9.61c.76,2.74,1.65,6.15,3.41,8.44,2.62,3.39,5.64-.81,6.58-3.29a78.17,78.17,0,0,0,2.51-8.5c2.77-11,4.31-22.41,8.87-32.86a52.94,52.94,0,0,1,4.34-8c2.07-3.12,4.67-5.88,6.4-9.24a33.69,33.69,0,0,0,3.3-9.92c.73-4.51-1.07-7.59-3.86-11-1.26-1.53,1.16-3.41,2.42-1.88Z"/><path class="cls-1" d="M829.87,295c-5.26,3.47-9.18,8.59-12.68,13.75a90.5,90.5,0,0,0-8,14.48,92.17,92.17,0,0,0-7.56,32.4c-.1,2-3.14,1.55-3-.41a94.63,94.63,0,0,1,16.45-48.82c3.56-5.18,7.59-10.32,12.89-13.82,1.64-1.08,3.53,1.33,1.89,2.42Z"/><path class="cls-1" d="M829.65,321.56c2.39,15.36,6.51,31,15.72,43.8,1.66,2.3,5.37,5.18,3.07,8.16-1.91,2.48-5.05,3.74-8,4.52-6.45,1.72-13.15,1.32-18.85-2.37-6.81-4.41-10.39-12.05-12.08-19.74-.42-1.93,2.63-2.3,3.05-.38,1.38,6.33,4.2,12.59,9.44,16.65,5,3.86,11.14,4.52,17.16,3a19.42,19.42,0,0,0,4-1.43,9.36,9.36,0,0,0,2-1.32c1.11-1,.69-1.44-.11-2.44a66.22,66.22,0,0,1-5.59-8.1,87.88,87.88,0,0,1-7.94-18.1,147.9,147.9,0,0,1-4.95-21.9c-.31-1.95,2.74-2.33,3-.38Z"/><path class="cls-1" d="M828.82,320.48c-8.14,17-3.77,36.46,5.9,51.82,1,1.66-1.37,3.55-2.42,1.88-10.24-16.26-14.94-36.86-6.31-54.88.85-1.77,3.68-.61,2.83,1.18Z"/><path class="cls-1" d="M851,288.44c6-1.7,12.41-2.77,18.56-1.4,6.74,1.49,11.74,5.93,15.69,11.42,8.44,11.72,11.92,27.14,10.86,41.43-.5,6.85-2.5,13.84-7.41,18.86a1.57,1.57,0,0,1-2.43,0,33.85,33.85,0,0,1-6.18-10,1.53,1.53,0,0,1,2.83-1.17,31.28,31.28,0,0,0,5.77,9.25l-2.43,0C894.67,348.27,894,334,892,323a57.34,57.34,0,0,0-7-19.19c-3.23-5.41-7.52-10.82-13.62-13s-13.14-1.24-19.31.51c-1.87.53-3.06-2.3-1.17-2.83Z"/><path class="cls-1" d="M885.48,331.78c-1.44-10.33-3.83-21.11-10.4-29.5-5.13-6.57-13-11.56-21.5-11.44-2,0-2.36-3-.38-3,9.29-.14,17.73,4.69,23.59,11.72,7.43,8.9,10.17,20.66,11.74,31.88a1.54,1.54,0,0,1-3,.38Z"/><path class="cls-1" d="M867.6,649.26c13.6-3,23.59-13.17,29.44-25.43a73.84,73.84,0,0,0,6.07-19.3c1.26-7.32,1.66-14.88-.34-22.11a37.18,37.18,0,0,0-12.27-18.37,56.5,56.5,0,0,0-9.74-6.52c-2.89-1.53-8.34-3-9.34,1.59-.6,2.75.5,5.75,1.18,8.39.95,3.69,1.62,7.47,2.21,11.23a155.67,155.67,0,0,1,1.81,23.62,240.89,240.89,0,0,1-1.45,26.58,50.45,50.45,0,0,1-2.34,11.48,29.28,29.28,0,0,1-2.4,5.1c-.88,1.5-1.93,2.79-1.17,4.56s-2,3.19-2.74,1.37c-1.36-3.17.07-5.35,1.63-8.1a32.68,32.68,0,0,0,3.61-11.78,208,208,0,0,0,1.78-25.92,153.68,153.68,0,0,0-1.8-26.68c-.63-4-1.37-7.91-2.39-11.78-.77-2.9-1.61-6.05-.83-9a7.21,7.21,0,0,1,7.24-5.25c3.92,0,7.65,2.49,10.83,4.52,6.75,4.32,12.73,10,16.41,17.24,7.08,13.86,4.44,31.23-1,45.24-5.9,15.32-17.25,28.76-33.86,32.37-1.93.42-2.52-2.59-.59-3Z"/><path class="cls-1" d="M872.29,586.92a60,60,0,0,0-20.16-19A58.51,58.51,0,0,0,839,562.37a11,11,0,0,0-3-.7c-1.62,0-2.44,1.41-3.23,2.63a37.75,37.75,0,0,0-3.09,5.78A42.11,42.11,0,0,0,827.4,596c2.42,10.45,9.3,19.76,16,28,7.51,9.26,16.16,17.5,24.49,26,1.38,1.41-.91,3.45-2.29,2-8.16-8.35-16.63-16.43-24-25.47-7.19-8.77-14.53-18.74-17.13-30a44.86,44.86,0,0,1,2.79-28.26c1.61-3.55,4.16-9.81,8.82-9.72,2.3,0,4.76,1,6.9,1.78a61.34,61.34,0,0,1,7,2.9A63.37,63.37,0,0,1,875,585.56c1.07,1.64-1.68,3-2.75,1.36Z"/><path class="cls-1" d="M825.26,576.81c-3.42-1.64-8-3.83-11.77-2.31-4,1.57-5.27,7.11-6.33,10.78-2.46,8.51-2.91,17.49-2.46,26.29.5,9.44,1.93,19.57,9,26.5,6,5.93,14.72,8.9,22.85,10.57,9.93,2,20.22,1.22,30.27.81,2-.08,1.75,3-.21,3.06-10,.41-20.13,1.14-30-.76-8.85-1.7-18.07-4.93-24.74-11.22-7.67-7.23-9.51-17.82-10.12-27.88-.59-9.71-.09-19.59,2.72-28.95,1.39-4.63,3.19-10.32,8.18-12.14,4.54-1.65,9.52.38,13.61,2.35,1.76.84.81,3.75-1,2.9Z"/><path class="cls-1" d="M825.11,576.28a7.81,7.81,0,0,0-9.17,4.76,15.63,15.63,0,0,0,.24,11.24c3,8,10.35,13.05,17.15,17.67,1.63,1.11-.05,3.68-1.68,2.57-8.26-5.62-17.18-12.13-19.31-22.54-.86-4.25-.42-9.22,2.26-12.78a10.94,10.94,0,0,1,11.49-3.83c1.91.49.93,3.39-1,2.91Z"/><path class="cls-1" d="M840.75,574.22c1.64,27.31,15.54,52,27.33,76.08a1.54,1.54,0,0,1-2.75,1.37c-12.06-24.6-26-49.72-27.64-77.65-.12-2,2.94-1.75,3.06.2Z"/><path class="cls-1" d="M888,570.69a49.94,49.94,0,0,1,8.32,33.39C895.15,616,890.1,627.23,883,636.74a93.06,93.06,0,0,1-14.12,14.83c-1.5,1.28-3.55-1-2.05-2.28,17-14.47,29.92-35.84,26-58.92a43.57,43.57,0,0,0-7.08-17.63c-1.12-1.6,1.15-3.66,2.28-2Z"/><path class="cls-1" d="M838.29,562.42c4.59-6.9,12.74-8.57,20.42-9.7,4-.58,8-1.15,11.76-2.8,4.21-1.88,7.73-5.08,10.77-8.47,10.44-11.65,15.28-27.34,15.74-42.77a106.62,106.62,0,0,0-2.28-24.56,40.41,40.41,0,0,0-1.59-6.14,13.37,13.37,0,0,0-1.39-2.81c-.28-.44-.65-1.22-1.05-1.06s-.68.85-.89,1.13a30.56,30.56,0,0,0-5,11c-2,7.8-1.92,15.91-3.26,23.82A47.88,47.88,0,0,1,872.6,521a46.51,46.51,0,0,1-9.36,9.23c-3.8,2.81-8,5.06-11.64,8.1-7.36,6.18-9.22,15.47-10.56,24.52-.29,2-3.29,1.31-3-.64,1.16-7.78,2.66-15.93,7.68-22.26,5.67-7.14,14.79-10.36,21.08-16.88a44.12,44.12,0,0,0,11.5-22.34c1.64-8.52,1.4-17.33,3.66-25.74a34.76,34.76,0,0,1,4.59-10.47c.89-1.33,1.94-3.13,3.58-3.58,1.92-.51,3.23,1.11,4.17,2.55,2.36,3.61,3.06,8.13,3.83,12.29a121.13,121.13,0,0,1,1.69,12.85c1.18,16.28-1.61,33.23-10.5,47.15-5,7.81-11.88,15.45-21,18.17-8.86,2.64-21.49,1.12-27.29,9.84-1.08,1.63-3.82.26-2.73-1.38Z"/><path class="cls-1" d="M853.55,532.82c3.1-4.92,2.6-11.79,2.17-17.36a67.85,67.85,0,0,0-3.88-17.91C848,487,840.29,475.36,827.9,474.93c-5-.17-10.26,1.54-13.37,5.66-3.58,4.75-3.76,11.37-4.09,17.06-.72,12.23-.14,24.9,4.75,36.31a43.4,43.4,0,0,0,12,16.5c4.67,3.84,12.34,5.9,13.49,12.63.33,1.94-2.73,2.06-3.06.14-.6-3.52-4.63-5.31-7.37-6.93a39.68,39.68,0,0,1-7.5-5.7,48.34,48.34,0,0,1-10.66-16c-5.22-12.39-5.56-26.23-4.59-39.44.43-5.85,1.08-12,4.85-16.8,3.33-4.21,8.73-6.3,14-6.47,12.78-.4,21.83,9.78,26.68,20.57a68.6,68.6,0,0,1,5.56,21.24c.66,6.48,1.28,14.76-2.34,20.52-1,1.66-3.79.29-2.74-1.38Z"/><path class="cls-1" d="M811.33,479.94a8.78,8.78,0,0,0-1.08-3.26c-.24-.41-1.18-2-1.71-1.91s-1.16,2-1.33,2.39c-.43.88-.84,1.77-1.24,2.67a81.82,81.82,0,0,0-3.83,11.07,161.87,161.87,0,0,0-4.22,22.5c-.92,7.42-1.24,15.28,1.52,22.37,1.44,3.71,3.72,7.16,7.45,8.83,3.48,1.55,7.3,2.44,10.89,3.71,8.11,2.89,16,6.52,22.66,12,1.53,1.25-.51,3.54-2,2.29-7.06-5.81-15.56-9.4-24.15-12.31-4-1.34-8.51-2.2-11.87-4.87s-5.27-6.62-6.5-10.51c-2.51-8-1.78-16.55-.63-24.71a138.91,138.91,0,0,1,5.61-25.6c.82-2.4,1.72-4.76,2.76-7.06.79-1.73,1.66-4.54,3.3-5.67,4-2.76,7.1,5.21,7.46,7.91.26,1.95-2.81,2.09-3.06.14Z"/><path class="cls-1" d="M854.49,531.13A41.24,41.24,0,0,0,869.39,477a29.5,29.5,0,0,0-9.49-11.17c-1.77-1.16-4.67-2.88-6.88-2.67-2.65.25-1.83,3.95-1.35,5.69,3.05,11.18,7.31,22,9,33.5,1.6,10.75.91,22.1-4.15,31.89a1.53,1.53,0,0,1-2.74-1.38c5.13-9.92,5.41-21.46,3.53-32.27a155.25,155.25,0,0,0-5.07-19.45c-1-3.1-2-6.19-2.9-9.3-.71-2.34-1.5-4.77-1.14-7.25a4.91,4.91,0,0,1,3.7-4.38c2.29-.51,5,.62,7,1.59a28.55,28.55,0,0,1,11.34,10.65,44.33,44.33,0,0,1-14.14,61.22,1.54,1.54,0,0,1-1.67-2.58Z"/><path class="cls-1" d="M826,487.66a60.51,60.51,0,0,0-2.17,37.14,59.18,59.18,0,0,0,7.26,16.92c3.74,5.9,9,11.11,10.31,18.23l-3,.14c3-12.71,14.89-19.73,25.3-26,6.18-3.72,12.47-7.68,16.83-13.57,4.19-5.66,6.1-12.62,7.21-19.47.32-1.95,3.32-1.31,3,.64-1.08,6.62-2.91,13.29-6.6,19-3.8,5.85-9.35,10.12-15.19,13.81-10.52,6.64-24.37,12.95-27.55,26.26-.33,1.36-2.67,1.74-3,.14-1.08-5.92-5.11-10.44-8.46-15.23a60.93,60.93,0,0,1-7.06-13.44A64.74,64.74,0,0,1,819.15,503a62.21,62.21,0,0,1,4.09-16.67c.73-1.84,3.46-.44,2.74,1.38Z"/><path class="cls-1" d="M803.53,517.86a39.82,39.82,0,0,0,25.19,34.19c1.85.71.45,3.44-1.38,2.73A42.81,42.81,0,0,1,800.47,518a1.53,1.53,0,0,1,3.06-.15Z"/><path class="cls-1" d="M879.53,742.51a87.87,87.87,0,0,0,16.93-33.74c3.07-11.9,2.83-24.1-2-35.53A47.3,47.3,0,0,0,884.38,658a41.61,41.61,0,0,0-7.06-5.69c-1.19-.75-2.78-1.8-4.27-1.65-1.88.2-3.21,2.37-4.23,3.76-4.54,6.19-6.74,13.79-8,21.25a132,132,0,0,0-1.89,22.88c0,15.43,2,31.73-5,46.1-.86,1.77-3.64.48-2.78-1.3,6.83-14,4.68-30.09,4.73-45.18A132.93,132.93,0,0,1,858,674.14c1.45-7.79,3.95-15.56,8.75-22,1.87-2.51,4.12-5,7.56-4.47,3,.47,5.77,2.64,8.1,4.46a47.86,47.86,0,0,1,12.35,14.58,55.91,55.91,0,0,1,6,37.1,90.19,90.19,0,0,1-18.82,40.65c-1.25,1.51-3.59-.47-2.33-2Z"/><path class="cls-1" d="M857.58,671.87c-.45-4.45-4.67-7.32-8.87-7.79-5.15-.56-10.07,2.69-13.58,6.14-4.35,4.29-7.54,9.35-8.28,15.5s-.33,12.63-.23,18.86q.17,10.81.71,21.6c.1,2-3,2.26-3.05.28q-.56-11.16-.73-22.34c0-3.84-.08-7.68-.06-11.52a47,47,0,0,1,.8-10.13c1.4-6.32,5.52-11.74,10.34-15.92,4.14-3.61,9.7-6.36,15.33-5.39,5.3.92,10.12,4.88,10.67,10.43a1.53,1.53,0,0,1-3,.28Z"/><path class="cls-1" d="M813.9,714.87a86.63,86.63,0,0,1-2.75-17c-.33-5.64-.43-11.78,1-17.27,3.13-11.71,14.79-15.51,25.53-17.22,1.95-.31,2.22,2.74.28,3.05-10.18,1.62-21.13,5.19-23.23,16.68-1.82,10-.55,21,2,30.7.5,1.89-2.37,3-2.88,1Z"/><path class="cls-1" d="M879.17,652c0-3.37.18-7,2.66-9.6a6.3,6.3,0,0,1,8.09-1c2.81,1.72,5.17,4.48,7.23,7a50.18,50.18,0,0,1,5.65,8.69,57.66,57.66,0,0,1,4,41.66,71.51,71.51,0,0,1-11.56,23.5c-1.17,1.58-3.5-.41-2.33-2,8-10.79,13-24,13-37.49a51.92,51.92,0,0,0-11.11-32.4,43.34,43.34,0,0,0-3.2-3.57c-1.27-1.26-2.86-3.11-4.71-3.41-4.27-.7-4.65,5.55-4.68,8.28,0,2-3.07,2.26-3.05.29Z"/><path class="cls-1" d="M876.52,678a86.77,86.77,0,0,1,4.92,27.58c0,10.06-4.09,18.53-8.92,27.1-1,1.71-3.75.43-2.78-1.29,4.67-8.29,8.8-16.47,8.64-26.23A85.15,85.15,0,0,0,873.64,679c-.64-1.87,2.24-2.92,2.88-1Z"/><path class="cls-1" d="M787.78,774c-2-10.1-2.59-20.37.43-30.34,2.5-8.25,7.17-15.77,14.21-20.88a29.48,29.48,0,0,1,11.24-5.13,18.27,18.27,0,0,1,6.46-.44c2.82.46,3.82,3.18,4,5.73.29,4.72-2.1,9.41-3.84,13.66a111.28,111.28,0,0,1-7,14.61c-5,8.54-12.31,15.67-15.7,25.1,1,.18,2,.4,3,.63,2.12-5.83,5.94-10.83,9.6-15.79A95.69,95.69,0,0,0,820.42,744c2.29-5,4.74-10.28,6.11-15.65,1.05-4.09,1.15-9.54-2.32-12.57s-9.37-1.7-13.31-.58a33.3,33.3,0,0,0-11.74,6.22c-7.26,5.88-11.85,14-14.31,22.92-2.71,9.84-2.12,20-.12,29.94C785.12,776.2,788.18,775.93,787.78,774Z"/><path class="cls-1" d="M853.88,728c-2-7-8.92-13-16.49-10.49-6.29,2.12-12.19,8-15.06,13.88-.87,1.78,1.91,3.07,2.78,1.3a27,27,0,0,1,7.1-8.61c2.64-2.19,6.15-4.51,9.72-4,8,1,10.2,10.34,9.76,17.1-.48,7.64-3.59,14.79-7.5,21.28-4.15,6.87-9.27,13.17-14.36,19.36-2,2.46-4.1,4.88-6.19,7.28,1.06.31,2.1.66,3.13,1.07,3.44-4,6.8-8,10.06-12.16,5.45-6.92,10.81-14.13,14.3-22.28C854.26,744.43,856.08,735.84,853.88,728Z"/><path class="cls-1" d="M877.88,734.31c-3.45-3.23-8.2-3.52-12.33-1.47-7.39,3.67-12.39,11.55-17.26,17.92-1.2,1.56,1.14,3.55,2.34,2,2.54-3.32,5.08-6.66,7.8-9.85s5.84-6.55,9.88-7.9c4.9-1.64,9.05,1.85,10.4,6.46s.62,9.87-.44,14.46c-2.28,9.87-7.65,18.91-14,26.67a66.05,66.05,0,0,1-22.38,17.86,12.85,12.85,0,0,1,1.22,2.91c1.43-.66,2.84-1.38,4.21-2.16,9.56-5.41,17.5-13.49,23.7-22.49s11.08-19.72,11.43-31C882.57,742.86,881.57,737.78,877.88,734.31Z"/><path class="cls-1" d="M794.47,775.85a45.05,45.05,0,0,1,13.07-38.58c1.42-1.38-.93-3.35-2.34-2a47.93,47.93,0,0,0-13.86,40.31C792.38,775.66,793.43,775.73,794.47,775.85Z"/><path class="cls-1" d="M811.53,780.66a113.06,113.06,0,0,0,12.23-14.44,147.09,147.09,0,0,0,13.55-24.63,1.54,1.54,0,0,0-2.78-1.3,142.88,142.88,0,0,1-13.1,23.94,111.89,111.89,0,0,1-12.91,15.17C809.53,779.79,810.54,780.21,811.53,780.66Z"/><path class="cls-1" d="M851.26,770.3a85.58,85.58,0,0,1-17.35,16.43c-1.15.85-2.33,1.67-3.53,2.47a3.56,3.56,0,0,1,.24.92c.68.42,1.36.83,2,1.27.85-.58,1.69-1.17,2.51-1.77a89.27,89.27,0,0,0,18.45-17.33C854.8,770.72,852.47,768.74,851.26,770.3Z"/><path class="cls-1" d="M835.14,719.06c-3.34-10.44-1.24-21.41,1-31.85.4-1.92,3.43-1.42,3,.51C837,697.6,834.85,708.12,838,718c.6,1.87-2.27,2.93-2.88,1Z"/><path class="cls-1" d="M714.83,1015.16c-7.49-3.3-14.08-8.08-20.33-13.28-3-2.52-6.36-5-8.64-8.27a21,21,0,0,1-3.42-9.37c-.91-7.39,1.4-14.73,4.84-21.39,3.78-7.32,8.47-14.35,15.21-19.22,6.29-4.55,13.58-7.63,20.63-10.64a52.83,52.83,0,0,1,10.45-3.5,21.19,21.19,0,0,1,5.13-.52c1.19.06,1.9.27.87,1.32a25.31,25.31,0,0,1-2.58,2,89.63,89.63,0,0,1-9.86,6.1c-3.3,1.92-5.78,4.86-8.12,7.84a86.36,86.36,0,0,0-12,20.34c-6.15,14.94-7.37,31.7-2,46.57a1.52,1.52,0,0,0,2.35.67c5.73-5.39,13-8.15,19.86-11.63a52,52,0,0,0,9.5-5.94,64.26,64.26,0,0,0,9-9.55c5.58-6.89,11-14,15.17-21.83,3.64-6.86,5.15-14.14,2-21.2-3.68-8.14-11.49-12.92-19.8-15.34-1.88-.55-3.22,2.36-1.31,2.91,7.15,2.09,14.11,5.86,17.71,12.65a17.77,17.77,0,0,1,2.11,9.57c-.3,3.85-2,7.46-3.83,10.85-4,7.34-9.14,14-14.38,20.47a59,59,0,0,1-8.58,9.15,49.68,49.68,0,0,1-9.1,5.62c-6.91,3.47-14.25,6.33-20,11.75l2.35.67c-5.38-14.8-3.83-31.5,2.71-46.19a80.28,80.28,0,0,1,6.63-12,61.31,61.31,0,0,1,8.14-10.29c3.06-2.94,7.19-4.33,10.64-6.72,1.7-1.18,3.33-2.45,4.94-3.74,1.22-1,2.46-2,2.37-3.71-.6-11.43-35.72,7.25-40.08,10-7.47,4.73-12.59,11.29-17,18.88-4,6.91-7.11,14.54-7.21,22.51a26.57,26.57,0,0,0,2.26,11.37c1.77,3.86,4.61,6.71,7.76,9.43,7.46,6.43,15.3,12.53,24.38,16.53,1.81.8,3.12-2.11,1.31-2.91Z"/><path class="cls-1" d="M765.8,990.46h0c-.61.46-2.16,1.32-2.82,1.71-3.22,1.9-7.05,2.47-10.7,3.14-4.25.78-8.55,1-12.81,1.6a72.16,72.16,0,0,0-22.61,7.26c-1.81.93-.78,3.86,1,2.92a69.65,69.65,0,0,1,18.55-6.5c6.63-1.29,20.23-1.5,28.63-6.13,3.28-1.81-1.5-.33.74-3.57C765.81,990.88,765.81,990.47,765.8,990.46Z"/><path class="cls-1" d="M795.75,958.36a3,3,0,0,0-.92-1.64,3.48,3.48,0,0,0-2.75-.44,14,14,0,0,0-6,2.39c-1.25.88-2.45,2.43-1.76,3.78a33.2,33.2,0,0,1,8.56-3.24c-.66.15-1.21,5.58-1.31,6.31a53.25,53.25,0,0,0-.38,6.18c-.05,4.66,0,9.31,0,14,0,4.42-.59,9.17-2.93,13.08-2.66,4.46-7.49,7-11.8,9.57a62.33,62.33,0,0,1-19.27,7.2,97.13,97.13,0,0,1-42.76-.47c-1.93-.47-2.45,2.66-.53,3.12a99.25,99.25,0,0,0,41,1,71,71,0,0,0,22.2-8c4.82-2.74,9.94-5.65,13.27-10.22S794,990.22,794,984.68a94.08,94.08,0,0,1,1.24-19c.45-2.31,1-4.67.6-7C795.8,958.61,795.77,958.48,795.75,958.36Z"/><path class="cls-1" d="M765.73,994.21a45.23,45.23,0,0,0,18.9-24.9c3-9.8,2.31-23.75-6.9-29.56-5.54-3.5-12.23-1.71-18.17.37-1,.36-1.48,2.09-.48,2.7a21.58,21.58,0,0,1,7.18,6.28,20.08,20.08,0,0,1,3,7.84c1,6.18-.72,12.54-4.08,17.92a41.38,41.38,0,0,1-14.68,13.61,66.73,66.73,0,0,1-9.21,4.36,41.29,41.29,0,0,0-8.78,4.23,1.54,1.54,0,1,0,1.77,2.52c4.75-3.31,10.67-4.63,15.76-7.35A50.06,50.06,0,0,0,763.64,982c7.15-7.85,11.06-18.84,7.94-29-1.77-5.74-5.51-9.67-10.49-12.7L760.6,943c6.44-2.26,13.67-3.88,18.32,2.07,3.73,4.77,4.7,11.55,4,17.61-1.44,11.73-8.91,22.68-18.92,29-1.74,1.09,0,3.61,1.77,2.52Z"/><path class="cls-1" d="M706.72,1008.88a42.44,42.44,0,0,1-9.57-13.76,31.46,31.46,0,0,1-1.77-15.71c1.53-11.81,8.1-22.2,14.87-31.87,1.17-1.67-1.2-3.61-2.39-1.92-7.31,10.43-14.44,21.79-15.69,34.61a34.05,34.05,0,0,0,2.29,16.67,47,47,0,0,0,10.25,14.47c1.38,1.4,3.39-1.1,2-2.49Z"/><path class="cls-1" d="M739.53,948.81c-11.31,5.82-20.21,15.39-26.21,26.6a85.74,85.74,0,0,0-7,17.72c-1.47,5.35-2.86,11.09-1,16.39.65,1.89,3.59.71,2.94-1.18-1.69-4.93,0-10.55,1.37-15.49a81.92,81.92,0,0,1,6.52-16.24c5.56-10.4,13.93-19.48,24.42-24.88,1.81-.93.78-3.86-1-2.92Z"/><path class="cls-1" d="M764.71,1004.05c-7.64,5-16.89,5.32-25.52,5.56q-15.8.45-31.59.37c-2,0-2.54,3.11-.54,3.12q16.53.09,33.08-.38c9-.27,18.38-1,26.33-6.14,1.72-1.12-.05-3.64-1.76-2.53Z"/><path class="cls-1" d="M814.23,780.71c-9.28,3.85-16.72,10.64-23.86,17.52s-14.4,13.91-16.73,23.84a44.58,44.58,0,0,0-.78,13.39,69.46,69.46,0,0,0,2.15,13.9,11.61,11.61,0,0,0,8.87,8.54c4.12,1,8.71.7,12.88.17A36.68,36.68,0,0,0,820,846c1.31-1.48-1.14-3.31-2.45-1.84a32.68,32.68,0,0,1-18.5,10.41,43.78,43.78,0,0,1-11.65.75c-4.77-.38-8.3-2.42-9.58-7.22A72.15,72.15,0,0,1,776,836a43.64,43.64,0,0,1,.46-12.34c1.84-9.37,8.71-16.13,15.33-22.51,7.09-6.84,14.42-13.75,23.65-17.58a1.53,1.53,0,0,0-1.18-2.83Z"/><path class="cls-1" d="M789.39,835.49a144.24,144.24,0,0,1,13.52-30.8c2.91-4.94,6-10.06,10.44-13.79a27.87,27.87,0,0,1,3.3-2.41c1.05-.64,3-1.92,4.31-1.38,1.64.68,2.12,4,2.31,5.52a58.71,58.71,0,0,1,.21,8q-.12,8-.86,15.93A212.56,212.56,0,0,1,817.07,848c-1.07,4.28-1.92,8.6-3,12.87-.73,3-1.6,6.31-1,9.41,1.69,8.59,14.68,3.25,19.38.52,14.45-8.38,18.09-26.81,17.2-42.24-.56-9.76-2.86-19.88-7.72-28.43a38.82,38.82,0,0,0-25.92-19.19c-1.94-.38-2.29,2.66-.36,3,10.14,2,18.8,8.93,23.77,17.89,4.2,7.59,6.29,16.33,7,24.93,1.31,15-1.76,34.3-16.58,41.94A28.79,28.79,0,0,1,824.1,871c-1.8.48-5.44,1.65-7.1.39-2.06-1.56-.76-6.11-.31-8.15,1.93-8.83,4.31-17.57,6.07-26.44a199.15,199.15,0,0,0,3.64-31c.17-4.64.55-9.58-.18-14.19-.48-3-1.85-7.38-5.48-7.63-3.2-.23-6.47,2.23-8.81,4.13-4.43,3.58-7.62,8.37-10.55,13.19a147.6,147.6,0,0,0-14.84,33.06c-.58,1.87,2.26,3,2.85,1.13Z"/><path class="cls-1" d="M816.27,781.07c-15.49-9.09-37.08-9.67-50.59,3.43a61.91,61.91,0,0,0-17.11,28.82c-2.1,8.3-2.66,17.68.19,25.87,1.56,4.47,4.49,8.75,8.75,11,2.56,1.37,5.49,1.7,8.33,2l11.29,1.07a1.54,1.54,0,0,0,.75-3c-3.55-1.71-7.2-3.64-9.67-6.8a14,14,0,0,1-2.83-9.22c.3-7.57,5.74-13.54,12.22-16.85,1.75-.9.58-3.73-1.18-2.83-7.61,3.89-14,11-14.1,19.89a17.27,17.27,0,0,0,3,10.33c2.79,3.92,7.14,6.29,11.38,8.33l.74-2.95-8.28-.78a44.1,44.1,0,0,1-8.27-1.1c-4-1.19-6.94-4.69-8.6-8.41-3.26-7.31-2.87-16.09-1.29-23.77,2.07-10,7.35-19.33,14.24-26.86a34.88,34.88,0,0,1,21.87-11.52,44,44,0,0,1,27.27,5.77c1.68,1,3.54-1.45,1.84-2.45Z"/><path class="cls-1" d="M764.52,810c2.71-5.09,5.56-9.77,10.2-13.34a67.18,67.18,0,0,1,11.84-7.27c7.87-3.76,16.54-5.82,25.25-4.38,2,.32,2.3-2.73.36-3.05-9.39-1.55-18.88.72-27.32,4.86a69,69,0,0,0-12.57,7.86c-4.8,3.83-7.77,8.86-10.61,14.2-.92,1.73,1.93,2.85,2.85,1.12Z"/><path class="cls-1" d="M822.7,789a49.71,49.71,0,0,1,14.87,30.44c1.37,11.87-1.36,23.86-6.75,34.44-.89,1.76,2,2.88,2.85,1.13,5.72-11.22,8.45-24,6.86-36.6a52.86,52.86,0,0,0-16-31.85c-1.43-1.35-3.26,1.1-1.84,2.44Z"/><path class="cls-1" d="M788.2,857.26c7.12,6.92,10,17,9.08,26.74-.55,5.8-2.51,11.49-4.56,16.92a75,75,0,0,1-7.25,14.67,40.87,40.87,0,0,1-12.79,12.72c-1.67,1-3.52-1.44-1.83-2.47,11.21-6.8,16.92-19.24,20.85-31.25,2-6.24,3.29-12.56,2.32-19.12a27.5,27.5,0,0,0-7.73-15.81c-1.4-1.36.49-3.78,1.91-2.4Z"/><path class="cls-1" d="M802,867.51c-3.69-4.35-8.53-7.47-13.33-10.44-1.66-1-3.59,1.37-1.91,2.4,4.86,3,10,6.16,13.49,10.74,4.1,5.3,4.51,12,4,18.46-.9,11.6-5.56,22.61-11.66,32.4q-2.28,3.67-4.84,7.17a38.1,38.1,0,0,1-5.8,6.92c-4.1,3.5-10.16,5-15.48,4.53-3.43-.31-5.79-2.06-8.12-4.48a31.12,31.12,0,0,1-5.16-6.55c-2.87-5.37-1.53-12.1-.38-17.77A79.6,79.6,0,0,1,770,876.06c1.26-1.52-1.14-3.42-2.4-1.91-10.34,12.49-17.42,27.66-18.94,43.91a23.38,23.38,0,0,0,.65,9.16,21.47,21.47,0,0,0,4.5,7.5c2,2.31,4.17,4.84,6.85,6.37a12,12,0,0,0,1.4.67l.1-.14a.47.47,0,0,1,.06-.09,2.93,2.93,0,0,1,.36-.43l0-.05a2.77,2.77,0,0,1,1.16-.75,2.85,2.85,0,0,1,1.38-.31,9.41,9.41,0,0,1,1.49.15,4.74,4.74,0,0,1,1.21.44,2.79,2.79,0,0,1,1.11-.23l.1-.05a2.85,2.85,0,0,1,1.38-.31,3.63,3.63,0,0,1,1.6-.35,3.46,3.46,0,0,1,1.93.55l.18,0a3.29,3.29,0,0,1,2.67,1.21,20.89,20.89,0,0,0,8.27-4.94c4.61-4.58,8.25-10.53,11.52-16.1,6.47-11,11-23.35,10.87-36.23C807.37,878,806,872.26,802,867.51Z"/><path class="cls-1" d="M788.27,858.42c-.39,3.59-1,7.22-3.5,10A26.31,26.31,0,0,1,776.6,874a34.06,34.06,0,0,1-10,3.07,74.1,74.1,0,0,0-10.46,1.84c-12.63,3.65-23.15,12-34.42,18.37-4.5,2.56-11.91,7.74-16.76,3.22-2.23-2.08-1.84-5.08-.87-7.66a47.36,47.36,0,0,1,4.68-9.09c7.59-11.75,19.67-20.15,32.43-25.5a90.92,90.92,0,0,1,22.43-6.16c3.83-.54,8-1.16,11.85-.42,4.25.81,7.86,3.26,11.34,5.69,1.62,1.12-.29,3.52-1.91,2.39-2.92-2-6-4.17-9.5-5-3.19-.72-6.6-.25-9.8.14a86.53,86.53,0,0,0-18.45,4.32C735.3,863.37,724,870,715.72,879.55a50.21,50.21,0,0,0-5.71,7.9c-1.43,2.46-3.25,5.48-3.65,8.34-.6,4.24,4.52,3.47,6.94,2.4a79.18,79.18,0,0,0,7.84-4.14c9.79-5.71,19-12.59,29.7-16.64a53.26,53.26,0,0,1,8.75-2.5c3.69-.7,7.48-.77,11.08-1.88a33.63,33.63,0,0,0,9.41-4.57c3.74-2.64,4.68-6.08,5.16-10.45.21-2,3.25-1.55,3,.41Z"/><path class="cls-1" d="M785.64,861.4c-6.15-1.33-12.56-.55-18.69.56A89.63,89.63,0,0,0,751,866.39a92.28,92.28,0,0,0-28.46,17.25c-1.47,1.3-3.29-1.16-1.82-2.47a94.41,94.41,0,0,1,46.4-22.36c6.2-1.08,12.69-1.79,18.9-.45,1.92.42,1.51,3.46-.42,3Z"/><path class="cls-1" d="M764.12,877.88a147.31,147.31,0,0,0-12.19,18.86,87.38,87.38,0,0,0-7.39,18.33,66.22,66.22,0,0,0-1.89,9.66c-.15,1.26-.18,1.89-1.67,1.78a9.23,9.23,0,0,1-2.32-.49,19.1,19.1,0,0,1-3.85-1.89c-5.27-3.26-9.1-8.12-9.83-14.39-.76-6.58,1.74-13,5.3-18.39,1.08-1.64-1.31-3.56-2.39-1.91-4.32,6.58-7.28,14.48-5.67,22.43,1.34,6.66,5.74,11.73,11.48,15.14a24.37,24.37,0,0,0,2.88,1.48,4,4,0,0,1,1-.14,3.6,3.6,0,0,1,1.49.3,3.76,3.76,0,0,1,1.51-.3h.18a3.3,3.3,0,0,1,2.51,1c2.9-1,2.47-5.14,2.92-7.73,2.71-15.52,11-29.41,20.33-41.85C767.7,878.21,765.3,876.31,764.12,877.88Z"/><path class="cls-1" d="M766.72,878.44c-17.84,6.06-28.71,22.79-32.93,40.45-.46,1.91-3.5,1.51-3-.41,4.47-18.69,15.91-36.46,34.83-42.88,1.86-.63,3,2.21,1.14,2.84Z"/><path class="cls-1" d="M819.09,884.17c-3.33-5.35-8.59-9.2-14-12.29-1.71-1-2.89,1.85-1.2,2.82,5.56,3.18,11.15,7.47,13.86,13.45s1.81,12.75.2,18.84a57.1,57.1,0,0,1-8.85,18.41C803,934,793.9,943.86,782.7,944.86a31.06,31.06,0,0,1,2.4-8.77,1.53,1.53,0,0,0-2.81-1.21,33.64,33.64,0,0,0-2.51,8.69,3.36,3.36,0,0,1,2.16,2.87h0a2.19,2.19,0,0,1,0,.36,4.1,4.1,0,0,1-.07,1.16c6.74-.22,12.88-3.58,18-7.86,11-9.24,19.55-22.5,22-36.73C823.05,896.72,822.73,890,819.09,884.17Z"/><path class="cls-1" d="M798.25,926.86c6.38-8.25,12.41-17.5,13.83-28.06,1.1-8.27-.8-17.35-6.87-23.38-1.38-1.37.51-3.78,1.92-2.39,6.59,6.55,9,16,8.11,25.06-1.17,11.54-7.67,21.72-14.59,30.68-1.21,1.56-3.61-.35-2.4-1.91Z"/><path class="cls-1" d="M24.71,655.1c5.92-7,5.92-7,5.92-20.62V556.86c0-13.63,0-13.63-5.92-20.62-1.43-1.61-1.07-4.48,2.16-4.48H52.68c3.23,0,3.59,2.87,2.15,4.48-5.91,7-5.91,7-5.91,20.62v79.6c0,9.68,2.33,14.52,22,14.52,16,0,20.79-3.59,28.86-19.18,3-6.1,4.3-8.61,7.17-8.61,2.33,0,3.59,1.61,2.87,6.28L106.82,654c-.36,3.58-2.51,5.55-6.09,5.55H26.87C23.64,659.58,23.28,656.72,24.71,655.1Z"/><path class="cls-1" d="M126.18,655.1c5.92-7,5.92-7,5.92-20.62V593.25c0-15.42,0-15.42-4.84-21-1.61-2.16-1.79-4.49,1.43-5.56l13.45-4.3c5.38-1.8,7.35.35,7.35,6.81v65.25c-.18,13.63,0,13.63,5.92,20.62,1.43,1.62,1.07,4.48-2.16,4.48H128.33C125.11,659.58,124.75,656.72,126.18,655.1Zm13.27-130c7.17,0,12.55,5,12.55,11.47,0,6.81-5.38,11.83-12.55,11.83-7.35,0-12.91-5-12.91-11.83C126.54,530.15,132.1,525.13,139.45,525.13Z"/><path class="cls-1" d="M177.63,655.1c5.92-7,5.92-7,5.92-20.62v-59a1.7,1.7,0,0,0-1.79-1.79h-8.43c-4.84,0-4.84-8.43,0-8.78l8.43-.36a1.7,1.7,0,0,0,1.79-1.8c0-25.27,12-37.64,31.37-37.64,15.06,0,26.72,9.68,26.72,21,0,4.48-2.51,8.25-7.53,8.25-12.37,0-5.92-20.8-20.26-20.8-11.12,0-13.27,12.19-12.91,28.15a1.61,1.61,0,0,0,1.79,1.79l17-.9c7-.35,5.92,11.3.36,11.3l-17.39-.18a1.7,1.7,0,0,0-1.79,1.79v59c0,13.63,0,13.63,6.63,20.62,1.8,1.62,1.26,4.48-2.33,4.48H179.79C176.56,659.58,176.2,656.72,177.63,655.1Z"/><path class="cls-1" d="M237,613c0-28.32,17.93-52,48.41-52,20.08,0,31.55,10.94,31.55,24.74,0,23.67-32.45,31.91-57.72,35.32a1.66,1.66,0,0,0-1.44,2.15c4.12,15.24,14.7,23.66,30.66,23.66,17,0,23.3-9.86,26.53-9.86,1.61,0,2.51.9,2.51,2.87,0,4.66-11.29,21.52-35.14,21.52C255.08,661.38,237,642.73,237,613Zm19-2c.18,1.25.89,1.79,2,1.61,18.11-2.87,41.77-10.39,41.77-28,0-8.61-5-14.88-16.13-14.88-15.78,0-27.61,15.59-27.61,37.64Z"/><path class="cls-1" d="M40.87,865.6c5.76-6.81,5.76-6.81,5.76-20.09v-79c0-9.25-2.62-12.75-11-12.75-7.16,0-11.71,3.84-18.52,18.34-2.79,5.59-3.67,8.21-6.46,8.21-2.27,0-3.67-1.57-3.32-6.29l2.1-23.23c.35-3.49,2.62-5.41,6.11-5.41h80c3.49,0,5.59,1.92,5.94,5.41l2.09,23.58c.53,4.54-.87,6.29-3.14,6.29-2.8,0-3.84-2.62-6.64-8.56C87.33,758,82.44,753.81,75.28,753.81c-8.39,0-10.83,3.5-10.83,12.75v79c-.18,13.28,0,13.28,5.76,20.09,1.4,1.57,1.05,4.37-2.09,4.37H43C39.82,870,39.47,867.17,40.87,865.6Z"/><path class="cls-1" d="M117.72,865.6c5.59-6.81,5.59-6.81,5.59-20.09V769.88c0-14.84,0-14.84-4.54-20.26-1.58-2.27-1.75-4.54,1.39-5.59l12.93-4.19c5.24-1.75,7.34.52,7.34,6.64V783c0,1.57,1,2.1,2.09.87,7.34-7.16,16.94-10.3,26.9-10.3,15.55,0,30.92,8.56,30.92,34.93v45.24c0,7,2.27,7.86,7.68,7.34,3.15-.35,3.32,2.44,1.57,4.54-2.09,2.45-7.68,5.59-13.62,5.59-7.86,0-12.4-4.19-12.58-15V808.83c0-15.37-5.76-24.1-19.38-24.1-12.06,0-23.58,8-23.58,24.45v36.33c-.18,13.28,0,13.28,5.76,20.09a2.56,2.56,0,0,1-2.1,4.37H119.64C116.67,870,116.32,867.17,117.72,865.6Z"/><path class="cls-1" d="M222.17,824.55c0-27.59,17.46-50.65,47.16-50.65,19.56,0,30.74,10.65,30.74,24.1,0,23.06-31.62,31.09-56.24,34.41a1.62,1.62,0,0,0-1.4,2.1c4,14.85,14.32,23,29.87,23,16.59,0,22.7-9.6,25.85-9.6,1.57,0,2.44.87,2.44,2.79,0,4.54-11,21-34.23,21C239.81,871.71,222.17,853.55,222.17,824.55Zm18.51-1.92c.18,1.22.87,1.75,1.92,1.57,17.64-2.79,40.7-10.13,40.7-27.24,0-8.39-4.89-14.5-15.72-14.5-15.37,0-26.9,15.19-26.9,36.68Z"/><path class="cls-1" d="M318.06,865.6c5.76-6.81,5.76-6.81,5.76-20.09V804.64c0-13.62-.35-13.62-5.24-19.74-1.75-2.09-1.92-4,1.05-5.24l12.92-4.54c3.32-1.22,6.12,0,6.12,3v8.73c0,1.58,1,1.93,1.92.53,6.29-9.43,15.37-13.45,23.4-13.45,11.36,0,19.22,7.33,19.22,17.12,0,5.41-2.27,10.48-8,10.48-11.7,0-5.59-15-17.64-15-9.08,0-16.77,12.06-16.77,24.28v34.76c-.17,13.28,0,13.28,5.77,20.09,1.39,1.57,1,4.37-2.1,4.37H320.15C317,870,316.66,867.17,318.06,865.6Z"/><path class="cls-1" d="M391.06,845.69c0-23.76,28.13-34.94,57.47-41.05a2.05,2.05,0,0,0,1.57-2.1c-.87-12.22-5.41-20.08-17.46-20.08-18.17,0-14.15,22.7-28.3,22.7-4.89,0-7.69-3.49-7.69-8,0-11.7,15.37-23.23,36-23.41,21.65,0,34.58,10.13,34.58,34.41v45.59c0,7,1.75,9.26,7.68,9.08,2.8,0,3.15,2.63,1.23,4.2-2.62,2.44-7.34,4.19-12.58,4.19-7.86,0-12.23-4-12.92-14.32-.18-1.23-.53-1.4-1.23-.35-6.63,10-17.29,15.19-29.34,15.19C404.51,871.71,391.06,862.28,391.06,845.69ZM425.65,860c13.1,0,24.63-10.65,24.63-30.22V814.42c0-1.22-1.23-1.74-3.5-1.22-24.45,5.59-38.07,16.07-38.07,30C408.71,852.15,415,860,425.65,860Z"/><path class="cls-1" d="M523.81,866.3c-1.57-1.92-1.22-4.89,2.44-4.19,23.76,5.06,34.94-12.93,34.94-38.26S553,784.2,536.39,784.2c-12.76,0-23.24,9.61-23.24,26.38v69.87c-.17,13.27,0,13.27,5.59,20.08,1.58,1.57,1,4.37-1.92,4.37H492.37c-3,0-3.49-2.8-1.92-4.37,5.59-6.81,5.59-6.81,5.59-20.08V804.64C496,791,495.86,791,491,784.9c-1.92-2.09-2.09-4,1-5.24l12.92-4.54c3.32-1.22,6.12,0,6.12,3v8c0,1.57,1.05,1.92,2.09.69,6.64-8.38,16.77-13.1,29.17-13.1,24.46,0,37.73,20.44,37.73,46.29,0,34.93-18,51.53-39.65,51C532,871,525.91,868.57,523.81,866.3Z"/><path class="cls-1" d="M596.12,887.26c0-5.07,3.49-9.43,9.25-9.43,10.13,0,10.13,16.07,21.31,16.07,7.34,0,17.47-8.39,26-32.84.52-1.75-.87-2.8-2.27-1.57a23.1,23.1,0,0,1-14.67,5.41c-20.44,0-29.87-15.54-33.71-41.57-1-7.16-1.93-15.2-2.62-23.75-.53-13.28-.88-13.28-6.64-19.92-1.4-1.74-1-4.54,2.09-4.54h24.28c3,0,3.5,2.8,2.1,4.54-5.77,6.64-5.77,6.64-5.59,19.92,1.05,7.51,1.75,14.32,2.62,20.61,3.14,21,7.51,34.58,21.31,34.58,14.15,0,20.61-20.26,22.18-45.59.87-11.53.52-23.23-5.41-29.52-1.58-1.74-1.23-4.54,1.92-4.54h19.91c3.14,0,3.49,2.8,2.1,4.72-3.67,5.06-5.07,11-5.59,16.94-2.8,22-5.59,39.65-9.44,54C654.11,892,636.81,907,619.17,906.3,607,906.3,596.12,897.74,596.12,887.26Z"/><path class="cls-1" d="M8.79,431.54c5.91-7,5.91-7,5.91-20.61V333.3c0-13.62,0-13.62-5.91-20.62-1.44-1.61-1.08-4.48,2.15-4.48H36.75c3.23,0,3.59,2.87,2.15,4.48-5.91,7-5.91,7-5.91,20.62v79.6c0,9.68,2.33,14.52,22,14.52,15.95,0,20.79-3.58,28.86-19.18,3-6.1,4.3-8.61,7.17-8.61,2.33,0,3.59,1.62,2.87,6.28l-3,24.56c-.36,3.58-2.51,5.56-6.09,5.56H10.94C7.71,436,7.35,433.16,8.79,431.54Z"/><path class="cls-1" d="M114.56,399.1V369.16c0-15.42,0-15.42-4.66-21-1.8-2.15-2-4.48,1.25-5.56l13.45-4.3c5.37-2,7.35.36,7.35,6.63v50.92c0,20.44,5.37,30.83,19.18,30.83,13.44,0,23.13-11.83,23.13-26.71V369.16c0-15.42,0-15.42-4.67-21-1.79-2.15-2-4.48,1.26-5.56l13.44-4.3c5.38-2,7.36.36,7.36,6.63v74.4c0,7.18,1.79,9.51,7.88,9.33,2.87,0,3.23,2.69,1.44,4.3-2.87,2.51-7.71,4.3-13.09,4.3-7.17,0-11.47-3.23-12.91-11.29-.18-1.44-.71-1.62-1.61-.72-6.63,8.25-16.14,12.19-27.61,12.19C131.23,437.46,114.56,429.75,114.56,399.1Z"/><path class="cls-1" d="M218.71,431.54c5.92-7,5.92-7,5.92-20.61V369c0-14-.36-14-5.38-20.26-1.79-2.15-2-4.12,1.08-5.38l13.26-4.66c3.41-1.25,6.28,0,6.28,3.05v7c0,1.61,1.07,2,2.15.72,7.17-8.79,17.57-12.37,27.61-12.37,10.75,0,20.61,3.58,25.81,14,.72,1.25,1.62,1.25,2.33.18a35.83,35.83,0,0,1,28.69-14.16c15.06,0,29,7.71,29,33.34v48.94c0,7.18,2.15,8.07,7.89,7.53,3.23-.35,3.4,2.51,1.61,4.66-2.15,2.51-7.89,5.74-14,5.74-8.07,0-12.73-4.3-12.91-15.42V370.77c0-14.34-4.84-22.23-17.39-22.23-10.4,0-21.33,8.25-21.33,25.1v37.29c0,13.62,0,13.62,5.91,20.61,1.44,1.62,1.08,4.49-2.15,4.49H278.23c-3.22,0-3.58-2.87-2.15-4.49,5.92-7,5.92-7,5.92-20.61V370.77c0-14.34-4.66-22.23-18.11-22.23-11.11,0-21.87,7-21.87,23.66v38.73c-.18,13.62,0,13.62,5.92,20.61,1.43,1.62,1.07,4.49-2.16,4.49H220.86C217.64,436,217.28,433.16,218.71,431.54Z"/><path class="cls-1" d="M381.31,431.54c5.92-7,5.92-7,5.92-20.61V369.69c0-15.41,0-15.41-4.84-21-1.61-2.15-1.79-4.48,1.43-5.56l13.45-4.3c5.38-1.79,7.35.36,7.35,6.81v65.26c-.18,13.62,0,13.62,5.92,20.61,1.43,1.62,1.07,4.49-2.16,4.49H383.46C380.24,436,379.88,433.16,381.31,431.54Zm13.27-130c7.17,0,12.55,5,12.55,11.47,0,6.82-5.38,11.84-12.55,11.84-7.35,0-12.91-5-12.91-11.84C381.67,306.59,387.23,301.57,394.58,301.57Z"/></svg>